<?xml version="1.0" encoding="utf-8"?>
<!-- Generator: Adobe Illustrator 23.0.2, SVG Export Plug-In . SVG Version: 6.00 Build 0)  -->
<svg version="1.1" id="Layer_1" xmlns="http://www.w3.org/2000/svg" xmlns:xlink="http://www.w3.org/1999/xlink" x="0px" y="0px"
	 viewBox="0 0 1920 1330" style="enable-background:new 0 0 1920 1330;" xml:space="preserve">
<style type="text/css">
	.st0{opacity:0.1;}
</style>
<g class="st0">
	<path d="M1112,239H873V0C1005,0,1112,107,1112,239z"/>
	<path d="M1112,511.8H873v-239C1005,272.8,1112,379.8,1112,511.8z"/>
	<path d="M1112,784.5H873v-239C1005,545.5,1112,652.5,1112,784.5z"/>
	<path d="M1112,1330H873v-239C1005,1091,1112,1198,1112,1330z"/>
	<circle cx="511" cy="904" r="239"/>
	<path d="M1920,0v1330c-367.3,0-665-297.7-665-665S1552.7,0,1920,0z"/>
	<path d="M511,512H0V1C282.2,1,511,229.8,511,512z"/>
</g>
</svg>
