<svg xmlns="http://www.w3.org/2000/svg" width="1109.333" height="1109.333" preserveAspectRatio="xMidYMid meet" version="1.0" viewBox="0 0 832 832"><metadata>Created by potrace 1.11, written by Peter Selinger 2001-2013</metadata><g fill="#000" stroke="none"><path d="M3341 6998 c0 -728 0 -1344 -1 -1370 l0 -48 -41 23 c-22 12 -48 27 -57 32 -9 6 -91 53 -182 105 -91 52 -173 100 -182 105 -9 6 -29 17 -45 26 -81 46 -135 77 -201 116 -41 24 -78 43 -83 43 -5 0 -9 4 -9 9 0 5 -10 13 -22 17 -13 3 -34 14 -48 24 -14 10 -47 30 -75 44 -27 15 -63 35 -80 45 -16 10 -120 70 -230 133 -110 64 -216 125 -235 136 -19 11 -57 33 -85 47 -27 15 -57 33 -65 39 -8 6 -35 22 -60 35 -25 13 -52 30 -61 37 -8 8 -19 14 -23 14 -4 0 -46 23 -94 52 -48 28 -112 65 -142 81 -30 17 -72 41 -92 54 -21 13 -42 23 -48 23 -5 0 -10 5 -10 10 0 6 -4 10 -9 10 -5 0 -43 20 -83 44 -109 64 -110 64 -139 10 -13 -25 -29 -53 -34 -62 -11 -19 -71 -122 -146 -252 -27 -47 -54 -92 -59 -100 -16 -27 -105 -185 -109 -195 -2 -5 -7 -12 -10 -15 -6 -5 -77 -126 -129 -220 -14 -25 -33 -57 -43 -72 -11 -14 -19 -30 -19 -36 0 -5 -7 -15 -15 -22 -9 -7 -13 -15 -10 -18 3 -3 -5 -19 -18 -36 -12 -17 -28 -42 -35 -56 -6 -14 -16 -32 -22 -40 -24 -37 -90 -151 -90 -155 0 -3 -11 -23 -25 -45 l-25 -40 23 -14 c20 -12 245 -143 325 -188 66 -37 98 -56 150 -87 29 -17 57 -31 62 -31 6 0 10 -4 10 -10 0 -5 4 -10 10 -10 5 0 44 -20 86 -45 41 -25 80 -45 85 -45 5 0 9 -4 9 -10 0 -5 4 -10 10 -10 5 0 47 -22 92 -49 80 -47 268 -155 433 -250 44 -25 93 -52 108 -60 15 -8 27 -18 27 -23 0 -4 5 -8 11 -8 14 0 263 -142 267 -152 2 -5 8 -8 12 -8 5 0 33 -14 62 -31 59 -35 104 -61 163 -92 22 -12 42 -25 45 -28 8 -10 54 -33 61 -32 4 1 15 -7 24 -17 10 -11 22 -20 27 -20 5 0 63 -31 128 -70 65 -38 124 -70 130 -70 6 0 9 -4 6 -9 -5 -7 -216 -132 -386 -228 -19 -11 -58 -34 -86 -50 -27 -17 -70 -41 -95 -55 -24 -14 -84 -49 -134 -78 -49 -29 -162 -94 -250 -145 -157 -91 -188 -109 -290 -167 -27 -16 -63 -37 -80 -47 -16 -10 -50 -29 -75 -43 -25 -14 -80 -46 -123 -72 -43 -25 -83 -46 -88 -46 -5 0 -9 -4 -9 -10 0 -5 -4 -10 -9 -10 -6 0 -80 -40 -165 -90 -86 -50 -161 -90 -166 -90 -6 0 -10 -3 -10 -8 0 -4 -21 -18 -47 -31 -27 -14 -59 -32 -73 -42 -14 -9 -45 -28 -70 -41 -25 -14 -82 -47 -127 -72 l-81 -47 21 -42 c12 -23 25 -44 28 -47 3 -3 23 -36 44 -75 20 -38 44 -78 53 -87 8 -10 12 -18 8 -18 -4 0 0 -7 8 -16 9 -8 16 -22 16 -30 0 -8 3 -14 8 -14 4 0 12 -10 18 -23 15 -31 49 -91 138 -241 42 -70 76 -132 76 -137 0 -5 4 -9 10 -9 5 0 9 -3 8 -7 -1 -5 5 -19 14 -33 22 -35 148 -251 148 -255 0 -1 31 -55 70 -119 38 -65 70 -119 70 -121 0 -2 19 -35 43 -73 38 -62 45 -69 63 -59 10 6 21 13 24 16 3 3 23 15 45 27 55 29 106 58 154 88 22 15 43 26 46 26 3 0 31 16 61 35 30 19 56 35 59 35 2 0 28 14 57 31 29 18 143 83 253 147 238 137 430 248 503 291 29 17 55 31 58 31 3 0 18 8 32 19 15 10 47 29 72 43 91 51 127 71 215 123 50 29 107 62 128 74 20 11 53 30 72 41 19 11 50 28 68 39 74 42 193 112 207 121 8 6 22 13 30 17 8 4 68 37 132 75 64 37 120 68 125 68 4 0 8 -614 8 -1365 l0 -1365 822 0 823 0 0 1370 0 1370 38 -22 c21 -13 47 -29 57 -36 11 -7 31 -18 45 -25 14 -6 69 -38 122 -70 53 -31 100 -57 103 -57 3 0 18 -8 33 -19 39 -26 76 -48 87 -51 6 -1 21 -10 35 -20 14 -9 45 -28 70 -42 25 -14 133 -76 240 -138 107 -62 211 -122 230 -132 19 -11 60 -35 90 -53 30 -18 75 -44 100 -57 25 -14 84 -48 132 -77 48 -28 91 -51 97 -51 6 0 11 -4 11 -10 0 -5 4 -10 10 -10 5 0 33 -14 62 -31 49 -30 78 -46 139 -81 13 -7 26 -15 29 -18 3 -3 23 -14 45 -25 22 -11 42 -22 45 -25 4 -5 89 -54 220 -127 25 -14 70 -40 100 -58 114 -68 232 -135 237 -135 2 0 2 4 -2 9 -3 5 -1 12 5 16 6 3 20 25 31 48 12 23 24 44 28 47 3 3 22 35 41 72 19 37 38 68 43 68 4 0 7 4 7 10 0 8 99 184 130 230 6 8 13 22 17 30 4 8 26 48 50 88 24 40 43 77 43 82 0 6 4 10 9 10 5 0 11 8 14 18 6 17 32 63 88 155 16 26 29 52 29 57 0 6 4 10 8 10 4 0 14 16 21 35 7 19 16 35 21 35 5 0 12 9 15 20 4 11 41 78 82 148 42 70 88 150 104 179 l28 51 -124 71 c-68 40 -137 79 -154 87 -17 9 -31 20 -31 25 0 5 -8 9 -17 9 -9 0 -24 6 -32 14 -9 7 -41 27 -71 43 -30 17 -95 54 -145 83 -100 59 -137 80 -193 111 -52 30 -390 227 -432 253 -19 11 -37 21 -40 21 -3 0 -16 8 -30 16 -67 43 -220 129 -229 129 -6 0 -11 5 -11 10 0 6 -5 10 -10 10 -6 0 -36 16 -66 35 -30 19 -56 35 -58 35 -2 0 -50 27 -105 60 -56 33 -104 60 -108 60 -3 0 -14 6 -22 14 -9 7 -41 27 -71 43 -30 17 -95 54 -145 83 -49 29 -110 64 -135 78 -25 14 -61 35 -80 47 -19 12 -40 24 -47 26 -7 2 -9 9 -5 14 9 13 168 105 182 105 5 0 10 3 10 8 0 8 26 23 73 42 15 7 27 16 27 21 0 5 4 9 9 9 5 0 108 57 228 127 120 69 236 136 258 148 22 12 78 45 125 72 94 56 316 184 425 246 39 22 72 44 73 48 2 5 12 9 22 9 9 0 23 7 30 15 7 8 16 15 20 15 4 0 96 52 206 116 109 64 271 157 359 207 88 50 162 94 165 97 3 4 13 9 23 13 28 10 117 71 117 80 0 4 -18 36 -40 71 -22 35 -40 68 -40 75 0 6 -4 11 -10 11 -5 0 -10 5 -10 10 0 6 -11 27 -23 48 -13 20 -35 57 -49 82 -14 25 -58 101 -98 170 -40 69 -84 145 -98 170 -14 25 -36 62 -49 82 -12 21 -23 40 -23 43 0 2 -15 28 -33 57 -19 29 -37 60 -40 68 -4 8 -18 33 -32 55 -14 22 -28 47 -32 55 -4 8 -24 43 -45 78 -21 34 -38 66 -38 71 0 5 -3 11 -7 13 -5 2 -19 23 -32 48 -14 25 -27 47 -30 50 -3 3 -20 32 -36 64 -17 33 -38 64 -46 69 -11 7 -47 -9 -140 -63 -136 -80 -171 -100 -239 -138 -25 -14 -58 -34 -75 -44 -16 -10 -37 -21 -45 -25 -8 -4 -55 -31 -103 -60 -48 -29 -90 -53 -92 -53 -3 0 -28 -15 -57 -32 -60 -37 -100 -60 -143 -82 -16 -9 -48 -27 -70 -41 -22 -14 -47 -28 -55 -32 -8 -3 -32 -17 -53 -31 -22 -13 -60 -35 -85 -49 -26 -15 -60 -35 -77 -45 -16 -10 -41 -23 -55 -30 -14 -7 -27 -15 -30 -18 -3 -3 -23 -14 -45 -25 -22 -11 -42 -23 -45 -26 -3 -4 -30 -19 -60 -35 -30 -15 -57 -31 -60 -34 -4 -5 -36 -24 -145 -85 -23 -13 -127 -72 -170 -98 -16 -9 -46 -25 -65 -35 -19 -9 -37 -20 -40 -23 -5 -6 -27 -19 -130 -77 -25 -14 -48 -30 -52 -36 -4 -6 -8 -7 -8 -2 0 5 -7 3 -15 -4 -8 -6 -29 -20 -47 -29 -18 -10 -62 -34 -96 -54 -35 -21 -67 -37 -70 -37 -4 0 -7 613 -7 1363 l0 1362 -822 3 -822 2 0 -1322z" transform="translate(0.000000,832.000000) scale(0.100000,-0.100000)"/></g></svg>