<?xml version="1.0" encoding="utf-8"?>
<!-- Generator: Adobe Illustrator 23.0.2, SVG Export Plug-In . SVG Version: 6.00 Build 0)  -->
<svg version="1.1" id="Layer_1" xmlns="http://www.w3.org/2000/svg" xmlns:xlink="http://www.w3.org/1999/xlink" x="0px" y="0px"
	 viewBox="0 0 369 369" style="enable-background:new 0 0 369 369;" xml:space="preserve">
<style type="text/css">
	.st0{fill:#1D1D1B;}
</style>
<g>
	<path class="st0" d="M218.7,6.1c-0.5,4.5-0.5,8.6-1,13.1c-0.5,5-0.5,10-1,15.1c-0.5,2.5-1,5.5-1,8.6c0,2,0.5,5.5-0.5,7
		c0,3.5-3.5,30.2-2.5,33.1c2-4.5,0.5-10.6,2.5-15.1c0.5,15.6-2.5,31.7-4,46.7c-0.5,7.5-1.5,15.1-2,22.6c-0.5,4-0.5,8-0.5,11.5
		c-0.5,3.5-1.5,8.1-1,11c0.5-0.5,1-1,1-2c0,1.5-0.5,2.5-0.5,4c-0.5-1.5,0,2.5,0,3c-0.5,2.5-0.5,5-1,7.5c0,5-0.5,10.1-0.5,15.6v18.1
		v1c0,0,0,0,0-0.5c-0.5,2-0.5,3.5-0.5,5c0-1,0.5-1.5,0.5-2.5c0,1.5,0,3-0.5,4.5v-0.5c-0.5,1-0.5,1.5-0.5,2.5v2.5
		c0.5-0.5,0.5-0.5,0.5-0.5v0.5c0,0,0,0-0.5,0c0.5,1,0.5,2,0.5,3c0,3-0.5,6.5-1,9.5c0,8.1-0.5,15.6-0.5,23.1
		c0,12.1-0.5,23.1-0.5,35.7v-1c-0.5,0.5,0,8.6,0,9.6c-0.5,4-0.5,8-1,12v10.6c-0.5,2-0.5,4.5-0.5,7c0,2,0,3.5,0.5,5
		c0.5-7,0.5-14.6,1-21.6c0.5,1,0.5,2.5,0.5,4c0,3.5-1,8.1-1,11.6c0,8,0,16.1-0.5,23.6c0,3.5-1,6.5-1,10.1c0,2,0,7-2,8.5h-0.5
		c-1.5,0-2.5-1-4-1.5H193c-1.5-1-0.5-1.5-1-2c-0.5,0-0.5,1-1.5,1c-1,0-1.5-0.5-2.5-1c-3-1-6.5-1.5-10-1.5c-4-0.5-8.5-1-12.6-2
		c-1.5-0.5-3-1-4.5-1c-1.5,0-2.5,0-4-0.5c-0.5,0-2-1-2-1c-1,0-2,1.5-3.5,1c-1-0.5-1.5-2-1.5-3.5c0-2,0.5-4.5,0.5-6.1
		c0-6-0.5-11.5-0.5-17.6c0-24.6,1.5-49.2,2-73.4c0.5-16.6,2-33.7,3-50.3c0,0,0,0.5,0,0v-0.5c1-14.1,2.5-27.7,3-41.7
		c1.5-31.7,3-63.4,5-95c0.5-8,0.5-16.6,1-24.6c0.5-2.5,0.5-5,0.5-7.6c0-5.5-1-11.5-1.5-17.6c0-2-1.5-8.6,0.5-10.1c1-1,2,0,3-1
		c0.5-1,0-4,0.5-5.5c0.5-3,3-2,5-3c0.5-0.5,0.5-1.5,1-1.5c0.5-0.5,1,0,1.5,0c1-0.5,1.5,1,2-1c0.5,1,1,1,2.5,1c2,0,4.5-0.5,5,1
		c0.5-2,9.6-1,11.6-1s5.5,0,7-1c0.5,0.5,0,1.5,0.5,1.5c1,0,0.5-1,1-1.5c2.5-0.5,1.5,0,2.5,0.5c0.5,0,0.5-1.5,1.5-0.5
		c0,0,0-0.5,0.5-0.5c0.5-0.5,0.5,2,1.5,2c1,0,0.5-2.5,2-2c1.5,0,1,1,1.5,2c0.5-0.5,0-1.5,1-1.5c0.5-0.5,0,0.5,0.5,0.5
		c0.5,0,0.5-1,1-1l2.5,1C219.7,2.1,218.7,4.1,218.7,6.1z M152.8,294.6c-0.5,0,0,1,0,1V294.6z M152.8,296.1c-0.5,1,0,1.5,0,2V296.1z
		 M153.4,290.1c-0.5,0-0.5,0-0.5,0.5C153.4,290.6,153.4,290.1,153.4,290.1z M153.4,278.5c-0.5,0,0,6.5,0,7V278.5z M153.4,266.4v7
		C153.8,272.5,153.8,266.4,153.4,266.4z M154.8,226.2c-0.5-0.5,0,1.5,0,2V226.2z M156.4,221.7c0,0.5-0.5,1,0,1.5V221.7z
		 M156.9,211.6c0-1,0-1-0.5-1.5C156.9,210.7,156.4,211.2,156.9,211.6z M156.9,228.8c-0.5,0-0.5,0.5,0,0.5V228.8z M157.4,200.1
		c-0.5,3-1,5.5-0.5,8.6C156.9,205.6,156.9,203.1,157.4,200.1z M158.4,207.6c-0.5,1,0.5,1.5,0,2.5
		C158.9,209.2,158.9,208.7,158.4,207.6z M158.9,204.6c-0.5,0.5,0,0.5,0,1C158.9,205.1,159.4,205.1,158.9,204.6z M159.4,190
		c0-1,0.5-1.5,0-2C159.4,188.5,158.9,189.1,159.4,190z M159.9,194.6c-0.5,0.5-1,1-0.5,1.5C159.4,195.6,159.9,195.1,159.9,194.6z
		 M163.9,103.6c0.5-3.5,2-10.6,0.5-13.6c0,1.5-0.5,4-1,6.1c0,1.5-0.5,5-1.5,6c1-15.6,2.5-30.7,3-46.2c-1.5,0.5-1,8.1-1,9.5
		c-0.5,4.5-0.5,9.1-1,13.1c0,7-1,14.1-1.5,21.1c-0.5,8-1,16.1-1,24.1c0,4-0.5,8.1-0.5,12.1c0,3.5-1,8-0.5,11.5
		c1-11.5,1.5-23.1,2-35.2c0-2,0.5-4.1,0.5-6.1c0,1,0,2.5,1,2.5C164.4,109.1,163.9,104.6,163.9,103.6z M159.9,189.5v1.5
		C160.4,190.5,160.4,190,159.9,189.5z M160.9,160.4c0-0.5,0-1.5-0.5-1.5C160.4,159.4,160.4,159.9,160.9,160.4z M160.9,161.4v-1
		C160.4,160.4,160.4,160.9,160.9,161.4z M161.9,156.4c-0.5,1-1,4.1,0,5.5V156.4z M161.9,113.1c-0.5,1.5-0.5,3-0.5,5.5
		c0,1.5,0,3,0.5,4.1c0.5-2.5,1.5-6.5,1-8.6C162.9,114.7,162.4,113.6,161.9,113.1z M161.4,145.3v5
		C161.9,149.9,162.4,146.3,161.4,145.3z M161.9,105.1v0.5V105.1z M161.9,105.6v0.5V105.6z M161.9,110.6v1.5
		C162.4,111.6,162.4,111.1,161.9,110.6z M162.4,140.8c-0.5,1-0.5,2-0.5,3C162.4,142.3,162.9,141.8,162.4,140.8z M162.4,152.3
		c-0.5,0-0.5,1.5,0,2V152.3z M162.9,130.2c-0.5,0.5-0.5,1-0.5,1C162.9,131.2,162.9,130.7,162.9,130.2z M163.4,93
		c-0.5,0-0.5,1.5-0.5,2C163.4,95.1,163.9,93,163.4,93z M162.9,140.8v1.5C163.4,141.8,163.4,141.3,162.9,140.8z M163.9,87.5
		c-0.5,0.5-0.5,0.5-0.5,1C163.9,88,163.9,87.5,163.9,87.5z M163.9,95.1c0.5,0.5,0.5,0.5,0,1V95.1z M164.9,89v-2.5
		C163.9,87,163.9,88.5,164.9,89z M196.6,210.1v1C197.1,210.7,197.1,210.7,196.6,210.1z M197.1,199.6v1
		C197.6,200.1,197.6,200.1,197.1,199.6z M198.6,163.4c-0.5,1-0.5,2.5,0,4.1C199.1,165.9,199.1,164.4,198.6,163.4z M198.6,168.4
		c-0.5,0-0.5,1,0,1V168.4z M201.6,178.5c0,1.5,0,3-0.5,4.5C201.6,181.5,202.1,180,201.6,178.5z M203.1,142.3c0.5-1,0.5-1.5,0.5-2.5
		C203.1,140.8,203.1,141.3,203.1,142.3z M204.1,222.2c-0.5,1-1,5.5-1,9c0,2.5,0,4.5,0.5,5C203.6,231.3,204.1,226.8,204.1,222.2z
		 M205.1,201.6v1.5c-0.5,0-0.5-0.5-0.5-1c-0.5,1.5-0.5,3,0,4.5c0,0.5,0,1-0.5,1.5v-0.5c-0.5,1,0,1.5,0,2v-0.5c0,2,0,4,0.5,5
		C205.1,210.1,205.6,205.6,205.1,201.6z M204.1,209.2c0-0.5,0-0.5,0-1V209.2z M204.6,226.8c-0.5,0.5-0.5,0.5,0,1V226.8z M206.6,182
		c0-2,0-3.5-0.5-5.5l-1.5,20.1C205.6,192,206.6,187.1,206.6,182z M204.6,206.1c0-1.5,0-2,0.5-3C205.1,203.6,204.6,204.6,204.6,206.1
		z M204.6,206.7v-0.5V206.7z M205.1,116.2v-2C205.1,115.1,204.6,115.7,205.1,116.2z M205.1,112.2c0.5-1.5,0.5-3.5,0.5-5.5
		C205.1,107.6,204.6,111.1,205.1,112.2z M205.1,226.2v1.5C205.6,227.2,205.6,226.8,205.1,226.2z M205.1,287.6c0.5-2,0-3.5,0.5-5.5
		C205.6,284,205.6,285.6,205.1,287.6z M205.6,105.6c0.5-2,1-5,1-8.1c0-1.5,0-3.5-0.5-4.5C205.6,97.1,205.6,101.1,205.6,105.6z
		 M206.6,166.4c0,0.5-0.5,0.5-0.5,1c-0.5,0.5-0.5,0.5,0,1v4C207.1,171,206.6,168.4,206.6,166.4z M206.1,214.2c0.5,1,0.5,1.5,0,1.5
		C205.6,214.7,205.6,214.2,206.1,214.2z M206.1,162.9v1C206.1,163.4,206.6,163.4,206.1,162.9z M206.1,168.4c0-0.5,0-0.5,0-1V168.4z
		 M206.6,174.5c0-0.5,0-1-0.5-1C206.1,173.5,206.1,174,206.6,174.5z M206.1,174.5v1.5C206.6,175.5,206.6,175,206.1,174.5z M206.6,87
		c0,1.5-0.5,3,0,5C206.6,90,207.1,88.5,206.6,87z M206.6,164.9v1C206.6,165.4,207.1,165.4,206.6,164.9z M207.1,85.5V84
		C206.6,84.5,206.6,85,207.1,85.5z M207.6,79.5c-0.5,0-0.5,0.5-0.5,0.5C207.6,80,207.6,79.5,207.6,79.5z M207.1,141.3v2.5
		C207.1,142.8,207.6,142.3,207.1,141.3z M207.1,156.4v1C207.6,156.9,207.6,156.9,207.1,156.4z M209.1,119.7c-0.5,0.5-1,5,0,5.5
		C208.6,123.2,209.1,121.7,209.1,119.7z M208.6,126.7v2.5C209.1,127.7,209.1,127.7,208.6,126.7z M208.6,152.3v-0.5V152.3z
		 M208.6,152.3c0.5,0.5,0.5,1,0,2C208.6,154.4,209.1,152.8,208.6,152.3z M211.7,96.1c0,2-0.5,4-1,6c0-1.5,0-3-0.5-3.5
		c0,1.5-0.5,3-0.5,5c-0.5,2,0,4,0,6c-0.5,1.5-1.5,6.1,0,7c1-2,0.5-6,0.5-8v-2c0,1.5,0,3.5,0.5,5c1.5-9.5,2.5-19.1,2.5-28.6
		C211.7,87,212.1,91.5,211.7,96.1z M209.6,142.3c0.5,1.5,0.5,5,0.5,6.5c-0.5,1-1,1.5-1,3C209.1,148.3,209.6,145.3,209.6,142.3z
		 M209.1,154.4c0.5,0.5,0.5,1,0,1.5V154.4z M210.6,102.1c0,1.5,0,3-0.5,4.5C210.6,105.1,210.6,103.6,210.6,102.1z M210.1,136.3
		c0-2,0-3.5,1-4.5c-0.5,3-0.5,6-1,9v-1V136.3z M210.6,38.2c0-1,0.5-2,0-3C210.6,36.2,210.1,37.3,210.6,38.2z M210.6,98.1v-1
		C210.6,97.5,210.1,98.6,210.6,98.1z M210.6,149.3v1C210.6,150.3,210.1,149.9,210.6,149.3z M210.6,93.5V94
		C210.6,94,211.1,94,210.6,93.5z M211.1,32.7c0.5-0.5,0-1.5,0-2C211.1,31.2,210.6,32.2,211.1,32.7z M211.1,88l0.5-5
		C210.6,85,211.1,86.5,211.1,88z M211.7,82.5V82C211.7,82,211.1,82.5,211.7,82.5z M211.7,28.7c0-1.5,2-11,1-12.1h-0.5
		C211.7,20.6,211.7,24.7,211.7,28.7z M212.1,77c0-2,0.5-4,0-6C212.1,73,211.7,75,212.1,77z M213.2,59.9c0,2-1.5,6.1-1,8.6
		C213.7,67.9,213.2,60.9,213.2,59.9z M212.7,69.9c0-0.5,0-1-0.5-1.5C212.1,68.9,212.1,69.4,212.7,69.9z M212.7,10.6c1,0,1-6.5,1-7
		C213.2,6.1,212.7,8.1,212.7,10.6z M213.2,55.4v1C213.2,55.8,213.7,56.3,213.2,55.4z M213.2,78v-1.5C213.2,77,213.7,77.5,213.2,78z
		 M214.2,50.8c-0.5,0.5-0.5,1.5-0.5,2C214.2,52.3,214.2,51.8,214.2,50.8z M214.7,41.3v4C215.2,43.8,214.7,42.8,214.7,41.3z
		 M214.7,96.6c0.5,0.5,0,0.5,0,0.5V96.6z M215.7,34.7c-0.5,1-0.5,2-0.5,3.5L215.7,34.7z M215.7,64.9v1.5
		C215.2,65.4,215.2,65.4,215.7,64.9z M215.7,52.3v3C215.2,54.3,215.7,53.3,215.7,52.3z M217.7,10.1c-1,1.5-1,3.5-0.5,4.5
		C217.7,12.6,218.2,11.1,217.7,10.1z"/>
	<path class="st0" d="M6.1,150.3c4.5,0.5,8.6,0.5,13.1,1c5,0.5,10,0.5,15.1,1c2.5,0.5,5.5,1,8.6,1c2,0,5.5-0.5,7,0.5
		c3.5,0,30.2,3.5,33.1,2.5c-4.5-2-10.6-0.5-15.1-2.5c15.6-0.5,31.7,2.5,46.7,4c7.5,0.5,15.1,1.5,22.6,2c4,0.5,8,0.5,11.5,0.5
		c3.5,0.5,8.1,1.5,11,1c-0.5-0.5-1-1-2-1c1.5,0,2.5,0.5,4,0.5c-1.5,0.5,2.5,0,3,0c2.5,0.5,5,0.5,7.5,1c5,0,10.1,0.5,15.6,0.5h18.1h1
		c0,0,0,0-0.5,0c2,0.5,3.5,0.5,5,0.5c-1,0-1.5-0.5-2.5-0.5c1.5,0,3,0,4.5,0.5h-0.5c1,0.5,1.5,0.5,2.5,0.5h2.5
		c-0.5-0.5-0.5-0.5-0.5-0.5h0.5c0,0,0,0,0,0.5c1-0.5,2-0.5,3-0.5c3,0,6.5,0.5,9.5,1c8.1,0,15.6,0.5,23.1,0.5
		c12.1,0,23.1,0.5,35.7,0.5h-1c0.5,0.5,8.6,0,9.6,0c4,0.5,8,0.5,12,1h10.6c2,0.5,4.5,0.5,7,0.5c2,0,3.5,0,5-0.5
		c-7-0.5-14.6-0.5-21.6-1c1-0.5,2.5-0.5,4-0.5c3.5,0,8.1,1,11.6,1c8,0,16.1,0,23.6,0.5c3.5,0,6.5,1,10.1,1c2,0,7,0,8.5,2v0.5
		c0,1.5-1,2.5-1.5,4v2.5c-1,1.5-1.5,0.5-2,1c0,0.5,1,0.5,1,1.5c0,1-0.5,1.5-1,2.5c-1,3-1.5,6.5-1.5,10c-0.5,4-1,8.5-2,12.6
		c-0.5,1.5-1,3-1,4.5c0,1.5,0,2.5-0.5,4c0,0.5-1,2-1,2c0,1,1.5,2,1,3.5c-0.5,1-2,1.5-3.5,1.5c-2,0-4.5-0.5-6.1-0.5
		c-6,0-11.5,0.5-17.6,0.5c-24.6,0-49.2-1.5-73.4-2c-16.6-0.5-33.7-2-50.3-3c0,0,0.5,0,0,0h-0.5c-14.1-1-27.7-2.5-41.7-3
		c-31.7-1.5-63.4-3-95-5c-8-0.5-16.6-0.5-24.6-1c-2.5-0.5-5-0.5-7.6-0.5c-5.5,0-11.5,1-17.6,1.5c-2,0-8.6,1.5-10.1-0.5c-1-1,0-2-1-3
		c-1-0.5-4,0-5.5-0.5c-3-0.5-2-3-3-5c-0.5-0.5-1.5-0.5-1.5-1c-0.5-0.5,0-1,0-1.5c-0.5-1,1-1.5-1-2c1-0.5,1-1,1-2.5c0-2-0.5-4.5,1-5
		c-2-0.5-1-9.6-1-11.6s0-5.5-1-7c0.5-0.5,1.5,0,1.5-0.5c0-1-1-0.5-1.5-1c-0.5-2.5,0-1.5,0.5-2.5c0-0.5-1.5-0.5-0.5-1.5
		c0,0-0.5,0-0.5-0.5c-0.5-0.5,2-0.5,2-1.5c0-1-2.5-0.5-2-2c0-1.5,1-1,2-1.5c-0.5-0.5-1.5,0-1.5-1c-0.5-0.5,0.5,0,0.5-0.5
		c0-0.5-1-0.5-1-1l1-2.5C2.1,149.3,4.1,150.3,6.1,150.3z M294.6,216.1c0,0.5,1,0,1,0H294.6z M296.1,216.1c1,0.5,1.5,0,2,0H296.1z
		 M290.1,215.6c0,0.5,0,0.5,0.5,0.5C290.6,215.6,290.1,215.6,290.1,215.6z M278.5,215.6c0,0.5,6.5,0,7,0H278.5z M266.4,215.6h7
		C272.5,215.1,266.4,215.1,266.4,215.6z M226.2,214.1c-0.5,0.5,1.5,0,2,0H226.2z M221.7,212.6c0.5,0,1,0.5,1.5,0H221.7z
		 M211.6,212.1c-1,0-1,0-1.5,0.5C210.7,212.1,211.2,212.6,211.6,212.1z M228.8,212.1c0,0.5,0.5,0.5,0.5,0H228.8z M200.1,211.6
		c3,0.5,5.5,1,8.6,0.5C205.6,212.1,203.1,212.1,200.1,211.6z M207.6,210.6c1,0.5,1.5-0.5,2.5,0C209.2,210.1,208.7,210.1,207.6,210.6
		z M204.6,210.1c0.5,0.5,0.5,0,1,0C205.1,210.1,205.1,209.6,204.6,210.1z M190,209.6c-1,0-1.5-0.5-2,0
		C188.5,209.6,189.1,210.1,190,209.6z M194.6,209.1c0.5,0.5,1,1,1.5,0.5C195.6,209.6,195.1,209.1,194.6,209.1z M103.6,205.1
		c-3.5-0.5-10.6-2-13.6-0.5c1.5,0,4,0.5,6.1,1c1.5,0,5,0.5,6,1.5c-15.6-1-30.7-2.5-46.2-3c0.5,1.5,8.1,1,9.5,1
		c4.5,0.5,9.1,0.5,13.1,1c7,0,14.1,1,21.1,1.5c8,0.5,16.1,1,24.1,1c4,0,8.1,0.5,12.1,0.5c3.5,0,8,1,11.5,0.5
		c-11.5-1-23.1-1.5-35.2-2c-2,0-4.1-0.5-6.1-0.5c1,0,2.5,0,2.5-1C109.1,204.6,104.6,205.1,103.6,205.1z M189.5,209.1h1.5
		C190.5,208.6,190,208.6,189.5,209.1z M160.4,208.1c-0.5,0-1.5,0-1.5,0.5C159.4,208.6,159.9,208.6,160.4,208.1z M161.4,208.1h-1
		C160.4,208.6,160.9,208.6,161.4,208.1z M156.4,207.1c1,0.5,4.1,1,5.5,0H156.4z M113.1,207.1c1.5,0.5,3,0.5,5.5,0.5
		c1.5,0,3,0,4.1-0.5c-2.5-0.5-6.5-1.5-8.6-1C114.7,206.1,113.6,206.6,113.1,207.1z M145.3,207.6h5
		C149.9,207.1,146.3,206.6,145.3,207.6z M105.1,207.1h0.5H105.1z M105.6,207.1h0.5H105.6z M110.6,207.1h1.5
		C111.6,206.6,111.1,206.6,110.6,207.1z M140.8,206.6c1,0.5,2,0.5,3,0.5C142.3,206.6,141.8,206.1,140.8,206.6z M152.3,206.6
		c0,0.5,1.5,0.5,2,0H152.3z M130.2,206.1c0.5,0.5,1,0.5,1,0.5C131.2,206.1,130.7,206.1,130.2,206.1z M93,205.6c0,0.5,1.5,0.5,2,0.5
		C95.1,205.6,93,205.1,93,205.6z M140.8,206.1h1.5C141.8,205.6,141.3,205.6,140.8,206.1z M87.5,205.1c0.5,0.5,0.5,0.5,1,0.5
		C88,205.1,87.5,205.1,87.5,205.1z M95.1,205.1c0.5-0.5,0.5-0.5,1,0H95.1z M89,204.1h-2.5C87,205.1,88.5,205.1,89,204.1z
		 M210.1,172.4h1C210.7,171.9,210.7,171.9,210.1,172.4z M199.6,171.9h1C200.1,171.4,200.1,171.4,199.6,171.9z M163.4,170.4
		c1,0.5,2.5,0.5,4.1,0C165.9,169.9,164.4,169.9,163.4,170.4z M168.4,170.4c0,0.5,1,0.5,1,0H168.4z M178.5,167.4c1.5,0,3,0,4.5,0.5
		C181.5,167.4,180,166.9,178.5,167.4z M142.3,165.9c-1-0.5-1.5-0.5-2.5-0.5C140.8,165.9,141.3,165.9,142.3,165.9z M222.2,164.9
		c1,0.5,5.5,1,9,1c2.5,0,4.5,0,5-0.5C231.3,165.4,226.8,164.9,222.2,164.9z M201.6,163.9h1.5c0,0.5-0.5,0.5-1,0.5
		c1.5,0.5,3,0.5,4.5,0c0.5,0,1,0,1.5,0.5h-0.5c1,0.5,1.5,0,2,0h-0.5c2,0,4,0,5-0.5C210.1,163.9,205.6,163.4,201.6,163.9z
		 M209.2,164.9c-0.5,0-0.5,0-1,0H209.2z M226.8,164.4c0.5,0.5,0.5,0.5,1,0H226.8z M182,162.4c-2,0-3.5,0-5.5,0.5l20.1,1.5
		C192,163.4,187.1,162.4,182,162.4z M206.1,164.4c-1.5,0-2,0-3-0.5C203.6,163.9,204.6,164.4,206.1,164.4z M206.7,164.4h-0.5H206.7z
		 M116.2,163.9h-2C115.1,163.9,115.7,164.4,116.2,163.9z M112.2,163.9c-1.5-0.5-3.5-0.5-5.5-0.5
		C107.6,163.9,111.1,164.4,112.2,163.9z M226.2,163.9h1.5C227.2,163.4,226.8,163.4,226.2,163.9z M287.6,163.9c-2-0.5-3.5,0-5.5-0.5
		C284,163.4,285.6,163.4,287.6,163.9z M105.6,163.4c-2-0.5-5-1-8.1-1c-1.5,0-3.5,0-4.5,0.5C97.1,163.4,101.1,163.4,105.6,163.4z
		 M166.4,162.4c0.5,0,0.5,0.5,1,0.5c0.5,0.5,0.5,0.5,1,0h4C171,161.8,168.4,162.4,166.4,162.4z M214.2,162.8c1-0.5,1.5-0.5,1.5,0
		C214.7,163.4,214.2,163.4,214.2,162.8z M162.9,162.8h1C163.4,162.8,163.4,162.4,162.9,162.8z M168.4,162.8c-0.5,0-0.5,0-1,0H168.4z
		 M174.5,162.4c-0.5,0-1,0-1,0.5C173.5,162.8,174,162.8,174.5,162.4z M174.5,162.8h1.5C175.5,162.4,175,162.4,174.5,162.8z
		 M87,162.4c1.5,0,3,0.5,5,0C90,162.4,88.5,161.8,87,162.4z M164.9,162.4h1C165.4,162.4,165.4,161.8,164.9,162.4z M85.5,161.8H84
		C84.5,162.4,85,162.4,85.5,161.8z M79.5,161.3c0,0.5,0.5,0.5,0.5,0.5C80,161.3,79.5,161.3,79.5,161.3z M141.3,161.8h2.5
		C142.8,161.8,142.3,161.3,141.3,161.8z M156.4,161.8h1C156.9,161.3,156.9,161.3,156.4,161.8z M119.7,159.8c0.5,0.5,5,1,5.5,0
		C123.2,160.3,121.7,159.8,119.7,159.8z M126.7,160.3h2.5C127.7,159.8,127.7,159.8,126.7,160.3z M152.3,160.3h-0.5H152.3z
		 M152.3,160.3c0.5-0.5,1-0.5,2,0C154.4,160.3,152.8,159.8,152.3,160.3z M96.1,157.3c2,0,4,0.5,6,1c-1.5,0-3,0-3.5,0.5
		c1.5,0,3,0.5,5,0.5c2,0.5,4,0,6,0c1.5,0.5,6.1,1.5,7,0c-2-1-6-0.5-8-0.5h-2c1.5,0,3.5,0,5-0.5c-9.5-1.5-19.1-2.5-28.6-2.5
		C87,157.3,91.5,156.8,96.1,157.3z M142.3,159.3c1.5-0.5,5-0.5,6.5-0.5c1,0.5,1.5,1,3,1C148.3,159.8,145.3,159.3,142.3,159.3z
		 M154.4,159.8c0.5-0.5,1-0.5,1.5,0H154.4z M102.1,158.3c1.5,0,3,0,4.5,0.5C105.1,158.3,103.6,158.3,102.1,158.3z M136.3,158.8
		c-2,0-3.5,0-4.5-1c3,0.5,6,0.5,9,1h-1H136.3z M38.2,158.3c-1,0-2-0.5-3,0C36.2,158.3,37.3,158.8,38.2,158.3z M98.1,158.3h-1
		C97.5,158.3,98.6,158.8,98.1,158.3z M149.3,158.3h1C150.3,158.3,149.9,158.8,149.3,158.3z M93.5,158.3H94
		C94,158.3,94,157.8,93.5,158.3z M32.7,157.8c-0.5-0.5-1.5,0-2,0C31.2,157.8,32.2,158.3,32.7,157.8z M88,157.8l-5-0.5
		C85,158.3,86.5,157.8,88,157.8z M82.5,157.3H82C82,157.3,82.5,157.8,82.5,157.3z M28.7,157.3c-1.5,0-11-2-12.1-1v0.5
		C20.6,157.3,24.7,157.3,28.7,157.3z M77,156.8c-2,0-4-0.5-6,0C73,156.8,75,157.3,77,156.8z M59.9,155.8c2,0,6.1,1.5,8.6,1
		C67.9,155.3,60.9,155.8,59.9,155.8z M69.9,156.3c-0.5,0-1,0-1.5,0.5C68.9,156.8,69.4,156.8,69.9,156.3z M10.6,156.3c0-1-6.5-1-7-1
		C6.1,155.8,8.1,156.3,10.6,156.3z M55.4,155.8h1C55.8,155.8,56.3,155.3,55.4,155.8z M78,155.8h-1.5C77,155.8,77.5,155.3,78,155.8z
		 M50.8,154.8c0.5,0.5,1.5,0.5,2,0.5C52.3,154.8,51.8,154.8,50.8,154.8z M41.3,154.3h4C43.8,153.8,42.8,154.3,41.3,154.3z
		 M96.6,154.3c0.5-0.5,0.5,0,0.5,0H96.6z M34.7,153.3c1,0.5,2,0.5,3.5,0.5L34.7,153.3z M64.9,153.3h1.5
		C65.4,153.8,65.4,153.8,64.9,153.3z M52.3,153.3h3C54.3,153.8,53.3,153.3,52.3,153.3z M10.1,151.3c1.5,1,3.5,1,4.5,0.5
		C12.6,151.3,11.1,150.8,10.1,151.3z"/>
	<path class="st0" d="M81.4,37.1c2.9,3.6,5.7,6.4,8.6,10c3.2,3.9,6.7,7.5,9.9,11.4c1.4,2.1,3.2,4.6,5.3,6.8c1.4,1.4,4.3,3.5,4.6,5.3
		c2.5,2.5,18.8,23.8,21.7,25.2c-1.8-4.6-7.1-7.8-8.9-12.4c11.4,10.7,20.6,24.2,30.2,35.9c5,5.7,9.6,11.7,14.6,17.4
		c2.5,3.2,5.3,6,7.8,8.5c2.1,2.8,4.6,6.8,7.1,8.5c0-0.7,0-1.4-0.7-2.1c1.1,1.1,1.4,2.1,2.5,3.2c-1.4-0.7,1.8,1.8,2.1,2.1
		c1.4,2.2,3.2,3.9,4.6,6c3.6,3.6,6.8,7.5,10.7,11.4l12.8,12.8l0.7,0.7c0,0,0,0-0.3-0.3c1.1,1.8,2.1,2.8,3.2,3.9
		c-0.7-0.7-0.7-1.4-1.4-2.1c1.1,1.1,2.1,2.1,2.8,3.5l-0.3-0.3c0.4,1.1,0.7,1.4,1.4,2.2l1.8,1.8c0-0.7,0-0.7,0-0.7l0.3,0.3
		c0,0,0,0-0.4,0.4c1.1,0.4,1.8,1.1,2.5,1.8c2.1,2.1,4.2,5,6,7.5c5.7,5.7,10.7,11.4,16,16.7c8.5,8.5,16,16.7,24.9,25.6l-0.7-0.7
		c0,0.7,6,6,6.8,6.8c2.5,3.2,5.3,6,7.8,9.2l7.5,7.5c1.1,1.8,2.9,3.6,4.6,5.3c1.4,1.4,2.5,2.5,3.9,3.2c-4.6-5.3-9.9-10.7-14.6-16
		c1.1,0.4,2.1,1.4,3.2,2.5c2.5,2.5,5,6.4,7.5,8.9c5.7,5.7,11.4,11.4,16.3,17.1c2.5,2.5,3.9,5.3,6.4,7.8c1.4,1.4,5,5,4.6,7.4
		l-0.4,0.4c-1.1,1.1-2.5,1.1-3.9,1.8l-1.8,1.8c-1.8,0.3-1.4-0.7-2.2-0.7c-0.4,0.4,0.4,1.1-0.3,1.8c-0.7,0.7-1.4,0.7-2.5,1.1
		c-2.8,1.4-5.7,3.6-8.1,6.1c-3.2,2.5-6.8,5.3-10.3,7.4c-1.4,0.7-2.8,1.4-3.9,2.5c-1.1,1.1-1.8,1.8-3.2,2.5c-0.3,0.3-2.1,0.7-2.1,0.7
		c-0.7,0.7-0.3,2.5-1.8,3.2c-1.1,0.3-2.5-0.4-3.5-1.4c-1.4-1.4-2.9-3.6-3.9-4.6c-4.3-4.3-8.5-7.8-12.8-12.1
		c-17.4-17.4-33.8-35.9-50.5-53.3c-11.4-12.1-22.4-25.2-33.4-37.7c0,0,0.3,0.3,0,0l-0.3-0.3c-9.2-10.7-17.8-21.3-27.3-31.6
		c-21.3-23.5-42.7-46.9-63.7-70.7c-5.3-6-11.4-12.1-16.7-18.1c-1.4-2.2-3.2-3.9-5-5.7c-3.9-3.9-8.9-7.5-13.5-11.3
		c-1.4-1.4-7.1-5-6.8-7.5c0-1.4,1.4-1.4,1.4-2.9c-0.3-1.1-2.8-2.8-3.5-4.3c-1.8-2.5,0.7-3.5,1.4-5.7c0-0.7-0.7-1.4-0.4-1.8
		c0-0.7,0.7-0.7,1.1-1.1c0.3-1.1,1.8-0.4,0.7-2.1c1.1,0.4,1.4,0,2.5-1.1c1.4-1.4,2.8-3.6,4.3-2.9c-1.1-1.8,6.1-7.5,7.5-8.9
		c1.4-1.4,3.9-3.9,4.3-5.7c0.7,0,1.1,1.1,1.4,0.7c0.7-0.7-0.4-1.1-0.4-1.8c1.4-2.1,1.1-1.1,2.1-1.4c0.4-0.4-0.7-1.4,0.7-1.4
		c0,0-0.3-0.3,0-0.7c0-0.7,1.8,1.1,2.5,0.3c0.7-0.7-1.4-2.1,0-2.8c1.1-1.1,1.4,0,2.5,0.3c0-0.7-1.1-1.1-0.4-1.8c0-0.7,0.3,0.3,0.7,0
		c0.3-0.3-0.3-1,0-1.4l2.5-1.1C79.2,33.6,79.9,35.7,81.4,37.1z M238.8,287.7c-0.4,0.4,0.7,0.7,0.7,0.7L238.8,287.7z M239.9,288.8
		c0.3,1.1,1,1,1.4,1.4L239.9,288.8z M236,284.1c-0.4,0.4-0.4,0.4,0,0.7C236.3,284.5,236,284.1,236,284.1z M227.8,276
		c-0.4,0.4,4.6,4.6,5,5L227.8,276z M219.3,267.4l5,5C223.9,271.3,219.6,267.1,219.3,267.4z M191.9,237.9c-0.7,0,1.1,1.1,1.4,1.4
		L191.9,237.9z M189.8,233.7c0.3,0.3,0.3,1.1,1.1,1.1L189.8,233.7z M183,226.2c-0.7-0.7-0.7-0.7-1.4-0.7
		C182.3,225.5,182.3,226.2,183,226.2z M195.1,238.3c-0.3,0.3,0,0.7,0.3,0.3L195.1,238.3z M175.2,217.7c1.8,2.5,3.2,4.6,5.7,6.4
		C178.7,221.9,177,220.2,175.2,217.7z M181.2,222.3c0.4,1.1,1.4,0.7,1.8,1.8C182.7,223,182.3,222.7,181.2,222.3z M179.4,219.8
		c0,0.7,0.4,0.4,0.7,0.7C179.8,220.2,180.2,219.8,179.4,219.8z M169.5,209.1c-0.7-0.7-0.7-1.4-1.4-1.4
		C168.4,208.1,168.5,208.8,169.5,209.1z M173.1,212c0,0.7,0,1.4,0.7,1.4C173.4,213,173.4,212.3,173.1,212z M111.6,144.8
		c-2.1-2.9-6-8.9-9.2-10c1.1,1.1,2.5,3.2,3.6,5c1,1,3.2,3.9,3.2,5.3c-10.3-11.7-19.9-23.5-30.6-34.8c-0.7,1.4,5,6.4,6,7.5
		c2.9,3.6,6.1,6.8,8.6,10c5,5,9.2,10.7,13.9,16c5.3,6,10.6,12.1,16.3,17.8c2.8,2.8,5.4,6,8.2,8.9c2.5,2.5,5,6.4,7.8,8.5
		c-7.5-8.9-15.3-17.4-23.4-26.3c-1.4-1.4-2.5-3.2-3.9-4.6c0.7,0.7,1.8,1.8,2.5,1.1C115.8,148.4,112.3,145.5,111.6,144.8z
		 M169.5,208.4l1.1,1.1C170.6,208.8,170.2,208.4,169.5,208.4z M149.6,187.1c-0.4-0.4-1.1-1.1-1.4-0.7
		C148.5,186.8,148.9,187.1,149.6,187.1z M150.3,187.8l-0.7-0.7C149.3,187.5,149.6,187.8,150.3,187.8z M147.5,183.5
		c0.4,1.1,2.2,3.6,3.9,3.9L147.5,183.5z M116.9,153c0.7,1.4,1.8,2.5,3.6,4.3c1.1,1.1,2.1,2.1,3.2,2.5c-1.4-2.2-3.6-5.7-5.3-6.8
		C118.7,153.3,117.6,153,116.9,153z M139.3,176.1l3.6,3.6C142.9,178.9,140.7,176.1,139.3,176.1z M111.2,147.3l0.3,0.3L111.2,147.3z
		 M111.6,147.7l0.3,0.3L111.6,147.7z M115.1,151.2l1.1,1.1C116.2,151.6,115.8,151.2,115.1,151.2z M136.8,172.2
		c0.3,1.1,1.1,1.8,1.8,2.5C137.9,173.3,137.9,172.5,136.8,172.2z M145,180.3c-0.4,0.4,0.7,1.4,1.4,1.4L145,180.3z M129.7,164.4
		c0,0.7,0.3,1,0.3,1C130.4,165.1,130.1,164.7,129.7,164.4z M103.8,137.7c-0.4,0.4,0.7,1.4,1.1,1.8
		C105.2,139.1,104.1,137.4,103.8,137.7z M137.2,171.8l1.1,1.1C138.2,172.2,137.9,171.8,137.2,171.8z M100.2,133.5c0,0.7,0,0.7,0.3,1
		C100.5,133.8,100.2,133.5,100.2,133.5z M105.5,138.8c0.7,0,0.7,0,0.7,0.7L105.5,138.8z M102,133.8l-1.8-1.8
		C99.9,133.1,100.9,134.1,102,133.8z M210,197l0.7,0.7C210.7,197.1,210.7,197.1,210,197z M202.9,189.2l0.7,0.7
		C203.6,189.2,203.6,189.2,202.9,189.2z M178.4,162.6c0.4,1.1,1.4,2.1,2.9,2.9C180.5,164,179.5,162.9,178.4,162.6z M181.9,166.1
		c-0.3,0.3,0.4,1.1,0.7,0.7L181.9,166.1z M191.2,171.1c1.1,1.1,2.1,2.1,2.8,3.5C193.3,173.2,192.6,171.8,191.2,171.1z M166.7,144.5
		c-0.4-1.1-0.7-1.4-1.4-2.2C165.6,143.4,165.9,143.8,166.7,144.5z M223.9,200.3c0.4,1.1,3.2,4.6,5.7,7.1c1.8,1.8,3.2,3.2,3.9,3.2
		C229.9,207,227.1,203.5,223.9,200.3z M210,185l1.1,1.1c-0.3,0.3-0.7,0-1.1-0.4c0.7,1.4,1.8,2.5,3.2,3.2c0.3,0.3,0.7,0.7,0.7,1.4
		l-0.3-0.3c0.4,1.1,1.1,1.1,1.4,1.4l-0.3-0.3c1.4,1.4,2.8,2.8,3.9,3.2C216,191,213.2,187.5,210,185z M214.6,191
		c-0.3-0.3-0.3-0.3-0.7-0.7L214.6,191z M227.4,203.1c0,0.7,0,0.7,0.7,0.7L227.4,203.1z M197.2,170.1c-1.4-1.4-2.5-2.5-4.3-3.6
		l13.1,15.3C203.6,177.9,200.8,173.6,197.2,170.1z M212.9,188.5c-1.1-1.1-1.4-1.4-1.8-2.5C211.4,186.4,211.8,187.5,212.9,188.5z
		 M213.2,188.9l-0.4-0.4L213.2,188.9z M149.6,124.6l-1.4-1.4C148.9,123.8,148.9,124.6,149.6,124.6z M146.8,121.7
		c-0.7-1.4-2.1-2.9-3.5-4.3C143.6,118.5,145.7,121.4,146.8,121.7z M227.4,202.4l1.1,1.1C228.5,202.7,228.2,202.4,227.4,202.4z
		 M270.8,245.8c-1.1-1.8-2.5-2.5-3.5-4.3C268.7,242.9,269.7,244,270.8,245.8z M142.5,116.7c-1.1-1.8-2.9-4.3-5-6.4
		c-1-1-2.5-2.5-3.5-2.8C136.4,110.7,139.3,113.5,142.5,116.7z M186.2,159c0.3,0.3,0,0.7,0.4,1.1c0,0.7,0,0.7,0.7,0.7l2.8,2.8
		C189.8,161.9,187.6,160.5,186.2,159z M219.6,193.2c1,0.3,1.4,0.7,1.1,1.1C219.6,193.9,219.3,193.5,219.6,193.2z M183.4,156.9
		l0.7,0.7C183.7,157.2,184.1,156.9,183.4,156.9z M187.3,160.8c-0.3-0.3-0.3-0.3-0.7-0.7L187.3,160.8z M191.9,164.7
		c-0.4-0.4-0.7-0.7-1.1-0.4C190.8,164.4,191.2,164.7,191.9,164.7z M191.6,165.1l1,1C192.6,165.4,192.3,165.1,191.6,165.1z
		 M130.1,102.9c1,1,1.8,2.5,3.5,3.5C132.2,105,131.5,103.6,130.1,102.9z M185.1,158l0.7,0.7C185.5,158.3,185.8,157.9,185.1,158z
		 M129.4,101.5l-1.1-1.1C128.3,101.1,128.6,101.4,129.4,101.5z M125.4,96.8c-0.3,0.3,0,0.7,0,0.7C125.8,97.2,125.4,96.8,125.4,96.8z
		 M168.8,140.9l1.8,1.8C169.9,142,169.9,141.3,168.8,140.9z M179.4,151.6l0.7,0.7C180.2,151.6,180.2,151.6,179.4,151.6z
		 M154.9,124.2c0,0.7,2.9,4.3,3.9,3.9C157.1,127.1,156.4,125.6,154.9,124.2z M159.6,129.5l1.8,1.8
		C160.6,129.9,160.6,129.9,159.6,129.5z M177.7,147.7l-0.3-0.3L177.7,147.7z M177.7,147.7c0.7,0,1.1,0.4,1.4,1.4
		C179.1,149.1,178.4,147.6,177.7,147.7z M140,105.7c1.4,1.4,2.5,3.2,3.5,5c-1.1-1.1-2.1-2.1-2.9-2.1c1.1,1.1,1.8,2.5,3.2,3.9
		c1.1,1.8,2.8,2.8,4.3,4.3c0.7,1.4,3.2,5.4,5,5c-0.7-2.1-3.9-4.6-5.3-6l-1.4-1.4c1,1,2.5,2.5,3.9,3.2c-5.7-7.8-11.7-15.3-18.5-22
		C133.6,99.3,137.2,102.2,140,105.7z M171.3,139.8c1.4,0.7,3.9,3.2,4.9,4.3c0.4,1.1,0.4,1.8,1.4,2.9
		C175.2,144.5,173.4,142,171.3,139.8z M179.4,148.7c0.7,0,1.1,0.4,1.1,1.1L179.4,148.7z M143.6,110.7c1.1,1.1,2.1,2.1,2.9,3.6
		C145.7,112.8,144.6,111.8,143.6,110.7z M167.4,135.2c-1.4-1.4-2.5-2.5-2.5-3.9c1.8,2.5,3.9,4.6,5.7,7.1l-0.7-0.7L167.4,135.2z
		 M98.4,65.5c-0.7-0.7-1.1-1.8-2.1-2.1C97,64.1,97.4,65.2,98.4,65.5z M140.7,107.9l-0.7-0.7C140.4,107.5,140.7,108.6,140.7,107.9z
		 M177,144.1l0.7,0.7C177.7,144.8,177,144.8,177,144.1z M137.5,104.6l0.3,0.3C137.9,105,138.2,104.6,137.5,104.6z M94.9,61.3
		c0-0.7-1.1-1.1-1.4-1.4C93.8,60.2,94.2,61.3,94.9,61.3z M134,100.4l-3.2-3.9C131.5,98.6,132.9,99.3,134,100.4z M130.4,96.1
		l-0.3-0.3C130.1,95.8,130.1,96.5,130.4,96.1z M92.4,58.1c-1.1-1.1-6.4-9.2-7.8-9.2l-0.4,0.4C86.7,52.4,89.6,55.3,92.4,58.1z
		 M126.9,91.9c-1.4-1.4-2.5-3.2-4.3-4.3C124,89,125.1,90.8,126.9,91.9z M115.5,79c1.4,1.4,3.2,5.4,5.3,6.8
		C121.5,84.4,116.2,79.8,115.5,79z M122.2,86.5c-0.3-0.3-0.7-0.7-1.4-0.7C121.2,86.2,121.5,86.5,122.2,86.5z M80.3,44.6
		c0.7-0.7-3.9-5.3-4.3-5.7C77.5,41,78.5,42.8,80.3,44.6z M112.3,75.9l0.7,0.7C112.6,76.2,113.3,76.2,112.3,75.9z M128.3,91.9
		l-1.1-1.1C127.6,91.1,128.3,91.1,128.3,91.9z M109.8,71.9c0,0.7,0.7,1.4,1.1,1.8C110.9,73,110.5,72.7,109.8,71.9z M103.4,64.9
		l2.8,2.8C105.5,66.3,104.5,65.9,103.4,64.9z M142.5,103.9c0.7,0,0.3,0.3,0.3,0.3L142.5,103.9z M99.5,59.5c0.4,1.1,1.1,1.8,2.1,2.8
		L99.5,59.5z M120.8,80.8l1.1,1.1C120.8,81.5,120.8,81.5,120.8,80.8z M111.9,72l2.1,2.1C113,73.7,112.6,72.7,111.9,72z M83.5,40.7
		c0.3,1.8,1.8,3.2,2.8,3.5C85.3,42.5,84.6,41,83.5,40.7z"/>
	<path class="st0" d="M337.8,83.7c-3.6,2.9-6.4,5.7-10,8.6c-3.9,3.2-7.5,6.7-11.4,9.9c-2.1,1.4-4.6,3.2-6.8,5.3
		c-1.4,1.4-3.5,4.3-5.3,4.6c-2.5,2.5-23.8,18.8-25.2,21.7c4.6-1.8,7.8-7.1,12.4-8.9c-10.7,11.4-24.2,20.6-35.9,30.2
		c-5.7,5-11.7,9.6-17.4,14.6c-3.2,2.5-6,5.3-8.5,7.8c-2.8,2.1-6.8,4.6-8.5,7.1c0.7,0,1.4,0,2.1-0.7c-1.1,1.1-2.1,1.4-3.2,2.5
		c0.7-1.4-1.8,1.8-2.1,2.1c-2.2,1.4-3.9,3.2-6,4.6c-3.6,3.6-7.5,6.8-11.4,10.7l-12.8,12.8l-0.7,0.7c0,0,0,0,0.3-0.3
		c-1.8,1.1-2.8,2.1-3.9,3.2c0.7-0.7,1.4-0.7,2.1-1.4c-1.1,1.1-2.1,2.1-3.5,2.8l0.3-0.3c-1.1,0.4-1.4,0.7-2.2,1.4l-1.8,1.8
		c0.7,0,0.7,0,0.7,0l-0.3,0.3c0,0,0,0-0.4-0.4c-0.4,1.1-1.1,1.8-1.8,2.5c-2.1,2.1-5,4.2-7.5,6c-5.7,5.7-11.4,10.7-16.7,16
		c-8.5,8.5-16.7,16-25.6,24.9l0.7-0.7c-0.7,0-6,6-6.8,6.8c-3.2,2.5-6,5.3-9.2,7.8l-7.5,7.5c-1.8,1.1-3.6,2.9-5.3,4.6
		c-1.4,1.4-2.5,2.5-3.2,3.9c5.3-4.6,10.7-9.9,16-14.6c-0.4,1.1-1.4,2.1-2.5,3.2c-2.5,2.5-6.4,5-8.9,7.5
		c-5.7,5.7-11.4,11.4-17.1,16.3c-2.5,2.5-5.3,3.9-7.8,6.4c-1.4,1.4-5,5-7.4,4.6l-0.4-0.4c-1.1-1.1-1.1-2.5-1.8-3.9l-1.8-1.8
		c-0.3-1.8,0.7-1.4,0.7-2.2c-0.4-0.4-1.1,0.4-1.8-0.3c-0.7-0.7-0.7-1.4-1.1-2.5c-1.4-2.8-3.6-5.7-6.1-8.1c-2.5-3.2-5.3-6.8-7.4-10.3
		c-0.7-1.4-1.4-2.8-2.5-3.9c-1.1-1.1-1.8-1.8-2.5-3.2c-0.3-0.3-0.7-2.1-0.7-2.1c-0.7-0.7-2.5-0.3-3.2-1.8c-0.3-1.1,0.4-2.5,1.4-3.5
		c1.4-1.4,3.6-2.9,4.6-3.9c4.3-4.3,7.8-8.5,12.1-12.8c17.4-17.4,35.9-33.8,53.3-50.5c12.1-11.4,25.2-22.4,37.7-33.4c0,0-0.3,0.3,0,0
		l0.3-0.3c10.7-9.2,21.3-17.8,31.6-27.3c23.5-21.3,46.9-42.7,70.7-63.7c6-5.3,12.1-11.4,18.1-16.7c2.2-1.4,3.9-3.2,5.7-5
		c3.9-3.9,7.5-8.9,11.3-13.5c1.4-1.4,5-7.1,7.5-6.8c1.4,0,1.4,1.4,2.9,1.4c1.1-0.3,2.8-2.8,4.3-3.5c2.5-1.8,3.5,0.7,5.7,1.4
		c0.7,0,1.4-0.7,1.8-0.4c0.7,0,0.7,0.7,1.1,1.1c1.1,0.3,0.4,1.8,2.1,0.7c-0.4,1.1,0,1.4,1.1,2.5c1.4,1.4,3.6,2.8,2.9,4.3
		c1.8-1.1,7.5,6.1,8.9,7.5s3.9,3.9,5.7,4.3c0,0.7-1.1,1.1-0.7,1.4c0.7,0.7,1.1-0.4,1.8-0.4c2.1,1.4,1.1,1.1,1.4,2.1
		c0.4,0.4,1.4-0.7,1.4,0.7c0,0,0.3-0.3,0.7,0c0.7,0-1.1,1.8-0.3,2.5c0.7,0.7,2.1-1.4,2.8,0c1.1,1.1,0,1.4-0.3,2.5
		c0.7,0,1.1-1.1,1.8-0.4c0.7,0-0.3,0.3,0,0.7c0.3,0.3,1-0.3,1.4,0l1.1,2.5C341.3,81.6,339.2,82.3,337.8,83.7z M87.2,241.1
		c-0.4-0.4-0.7,0.7-0.7,0.7L87.2,241.1z M86.1,242.2c-1.1,0.3-1,1-1.4,1.4L86.1,242.2z M90.8,238.3c-0.4-0.4-0.4-0.4-0.7,0
		C90.4,238.6,90.8,238.3,90.8,238.3z M98.9,230.1c-0.4-0.4-4.6,4.6-5,5L98.9,230.1z M107.5,221.6l-5,5
		C103.6,226.2,107.8,221.9,107.5,221.6z M137,194.2c0-0.7-1.1,1.1-1.4,1.4L137,194.2z M141.2,192.1c-0.3,0.3-1.1,0.3-1.1,1.1
		L141.2,192.1z M148.7,185.3c0.7-0.7,0.7-0.7,0.7-1.4C149.4,184.6,148.7,184.6,148.7,185.3z M136.6,197.4c-0.3-0.3-0.7,0-0.3,0.3
		L136.6,197.4z M157.2,177.5c-2.5,1.8-4.6,3.2-6.4,5.7C153,181.1,154.7,179.3,157.2,177.5z M152.6,183.5c-1.1,0.4-0.7,1.4-1.8,1.8
		C151.9,185,152.2,184.6,152.6,183.5z M155.1,181.8c-0.7,0-0.4,0.4-0.7,0.7C154.7,182.1,155.1,182.5,155.1,181.8z M165.8,171.8
		c0.7-0.7,1.4-0.7,1.4-1.4C166.8,170.7,166.1,170.8,165.8,171.8z M162.9,175.4c-0.7,0-1.4,0-1.4,0.7
		C161.9,175.7,162.6,175.7,162.9,175.4z M230.1,113.9c2.9-2.1,8.9-6,10-9.2c-1.1,1.1-3.2,2.5-5,3.6c-1,1-3.9,3.2-5.3,3.2
		c11.7-10.3,23.5-19.9,34.8-30.6c-1.4-0.7-6.4,5-7.5,6c-3.6,2.9-6.8,6.1-10,8.6c-5,5-10.7,9.2-16,13.9c-6,5.3-12.1,10.6-17.8,16.3
		c-2.8,2.8-6,5.4-8.9,8.2c-2.5,2.5-6.4,5-8.5,7.8c8.9-7.5,17.4-15.3,26.3-23.4c1.4-1.4,3.2-2.5,4.6-3.9c-0.7,0.7-1.8,1.8-1.1,2.5
		C226.5,118.2,229.4,114.6,230.1,113.9z M166.5,171.8l-1.1,1.1C166.1,172.9,166.5,172.5,166.5,171.8z M187.8,151.9
		c0.4-0.4,1.1-1.1,0.7-1.4C188.1,150.8,187.8,151.2,187.8,151.9z M187.1,152.6l0.7-0.7C187.4,151.6,187.1,151.9,187.1,152.6z
		 M191.4,149.8c-1.1,0.4-3.6,2.2-3.9,3.9L191.4,149.8z M221.9,119.2c-1.4,0.7-2.5,1.8-4.3,3.6c-1.1,1.1-2.1,2.1-2.5,3.2
		c2.2-1.4,5.7-3.6,6.8-5.3C221.6,121,221.9,119.9,221.9,119.2z M198.8,141.6l-3.6,3.6C196,145.2,198.8,143,198.8,141.6z
		 M227.6,113.5l-0.3,0.3L227.6,113.5z M227.2,113.9l-0.3,0.3L227.2,113.9z M223.7,117.5l-1.1,1.1
		C223.4,118.5,223.7,118.2,223.7,117.5z M202.7,139.1c-1.1,0.3-1.8,1.1-2.5,1.8C201.6,140.2,202.4,140.2,202.7,139.1z M194.6,147.3
		c-0.4-0.4-1.4,0.7-1.4,1.4L194.6,147.3z M210.5,132c-0.7,0-1,0.3-1,0.3C209.8,132.7,210.2,132.4,210.5,132z M237.2,106.1
		c-0.4-0.4-1.4,0.7-1.8,1.1C235.8,107.5,237.5,106.4,237.2,106.1z M203.1,139.5l-1.1,1.1C202.7,140.5,203.1,140.2,203.1,139.5z
		 M241.5,102.5c-0.7,0-0.7,0-1,0.3C241.1,102.9,241.5,102.5,241.5,102.5z M236.1,107.8c0,0.7,0,0.7-0.7,0.7L236.1,107.8z
		 M241.1,104.3l1.8-1.8C241.8,102.2,240.8,103.2,241.1,104.3z M177.9,212.3l-0.7,0.7C177.8,213.1,177.8,213.1,177.9,212.3z
		 M185.7,205.3l-0.7,0.7C185.7,205.9,185.7,205.9,185.7,205.3z M212.3,180.7c-1.1,0.4-2.1,1.4-2.9,2.9
		C210.9,182.9,212,181.8,212.3,180.7z M208.8,184.3c-0.3-0.3-1.1,0.4-0.7,0.7L208.8,184.3z M203.8,193.5c-1.1,1.1-2.1,2.1-3.5,2.8
		C201.7,195.6,203.1,194.9,203.8,193.5z M230.4,169c1.1-0.4,1.4-0.7,2.2-1.4C231.5,167.9,231.2,168.3,230.4,169z M174.6,226.2
		c-1.1,0.4-4.6,3.2-7.1,5.7c-1.8,1.8-3.2,3.2-3.2,3.9C167.9,232.2,171.4,229.4,174.6,226.2z M189.9,212.3l-1.1,1.1
		c-0.3-0.3,0-0.7,0.4-1.1c-1.4,0.7-2.5,1.8-3.2,3.2c-0.3,0.3-0.7,0.7-1.4,0.7l0.3-0.3c-1.1,0.4-1.1,1.1-1.4,1.4l0.3-0.3
		c-1.4,1.4-2.8,2.8-3.2,3.9C183.9,218.4,187.4,215.5,189.9,212.3z M183.9,217c0.3-0.3,0.3-0.3,0.7-0.7L183.9,217z M171.8,229.8
		c-0.7,0-0.7,0-0.7,0.7L171.8,229.8z M204.8,199.6c1.4-1.4,2.5-2.5,3.6-4.3l-15.3,13.1C197,205.9,201.3,203.1,204.8,199.6z
		 M186.4,215.2c1.1-1.1,1.4-1.4,2.5-1.8C188.5,213.8,187.5,214.1,186.4,215.2z M186,215.6l0.4-0.4L186,215.6z M250.3,151.9l1.4-1.4
		C251.1,151.2,250.3,151.2,250.3,151.9z M253.2,149.1c1.4-0.7,2.9-2.1,4.3-3.5C256.4,145.9,253.5,148,253.2,149.1z M172.5,229.7
		l-1.1,1.1C172.2,230.8,172.5,230.5,172.5,229.7z M129.1,273.1c1.8-1.1,2.5-2.5,4.3-3.5C132,271,130.9,272.1,129.1,273.1z
		 M258.2,144.8c1.8-1.1,4.3-2.9,6.4-5c1-1,2.5-2.5,2.8-3.5C264.2,138.8,261.4,141.6,258.2,144.8z M215.9,188.5
		c-0.3,0.3-0.7,0-1.1,0.4c-0.7,0-0.7,0-0.7,0.7l-2.8,2.8C213,192.1,214.5,189.9,215.9,188.5z M181.8,221.9c-0.3,1-0.7,1.4-1.1,1.1
		C181,221.9,181.4,221.6,181.8,221.9z M218,185.7l-0.7,0.7C217.7,186,218,186.4,218,185.7z M214.1,189.6c0.3-0.3,0.3-0.3,0.7-0.7
		L214.1,189.6z M210.2,194.2c0.4-0.4,0.7-0.7,0.4-1.1C210.5,193.2,210.2,193.5,210.2,194.2z M209.8,193.9l-1,1
		C209.5,194.9,209.8,194.6,209.8,193.9z M272,132.4c-1,1-2.5,1.8-3.5,3.5C269.9,134.5,271.3,133.8,272,132.4z M216.9,187.5l-0.7,0.7
		C216.6,187.8,217,188.2,216.9,187.5z M273.4,131.7l1.1-1.1C273.8,130.6,273.5,130.9,273.4,131.7z M278.1,127.7
		c-0.3-0.3-0.7,0-0.7,0C277.7,128.1,278.1,127.7,278.1,127.7z M234,171.1l-1.8,1.8C232.9,172.2,233.6,172.2,234,171.1z M223.4,181.8
		l-0.7,0.7C223.3,182.5,223.3,182.5,223.4,181.8z M250.7,157.3c-0.7,0-4.3,2.9-3.9,3.9C247.8,159.4,249.3,158.7,250.7,157.3z
		 M245.4,161.9l-1.8,1.8C245,162.9,245,162.9,245.4,161.9z M227.2,180l0.3-0.3L227.2,180z M227.2,180c0,0.7-0.4,1.1-1.4,1.4
		C225.8,181.4,227.3,180.7,227.2,180z M269.2,142.3c-1.4,1.4-3.2,2.5-5,3.5c1.1-1.1,2.1-2.1,2.1-2.9c-1.1,1.1-2.5,1.8-3.9,3.2
		c-1.8,1.1-2.8,2.8-4.3,4.3c-1.4,0.7-5.4,3.2-5,5c2.1-0.7,4.6-3.9,6-5.3l1.4-1.4c-1,1-2.5,2.5-3.2,3.9c7.8-5.7,15.3-11.7,22-18.5
		C275.6,135.9,272.7,139.5,269.2,142.3z M235.1,173.6c-0.7,1.4-3.2,3.9-4.3,4.9c-1.1,0.4-1.8,0.4-2.9,1.4
		C230.4,177.5,232.9,175.7,235.1,173.6z M226.2,181.8c0,0.7-0.4,1.1-1.1,1.1L226.2,181.8z M264.2,145.9c-1.1,1.1-2.1,2.1-3.6,2.9
		C262.1,148,263.1,147,264.2,145.9z M239.7,169.7c1.4-1.4,2.5-2.5,3.9-2.5c-2.5,1.8-4.6,3.9-7.1,5.7l0.7-0.7L239.7,169.7z
		 M309.4,100.7c0.7-0.7,1.8-1.1,2.1-2.1C310.8,99.3,309.7,99.7,309.4,100.7z M267,143l0.7-0.7C267.4,142.7,266.3,143,267,143z
		 M230.8,179.3l-0.7,0.7C230.1,180,230.1,179.3,230.8,179.3z M270.3,139.8l-0.3,0.3C269.9,140.2,270.3,140.5,270.3,139.8z
		 M313.6,97.2c0.7,0,1.1-1.1,1.4-1.4C314.7,96.1,313.6,96.5,313.6,97.2z M274.5,136.3l3.9-3.2C276.3,133.8,275.6,135.2,274.5,136.3z
		 M278.8,132.7l0.3-0.3C279.1,132.4,278.4,132.4,278.8,132.7z M316.8,94.7c1.1-1.1,9.2-6.4,9.2-7.8l-0.4-0.4
		C322.5,89,319.6,91.9,316.8,94.7z M283,129.2c1.4-1.4,3.2-2.5,4.3-4.3C285.9,126.3,284.1,127.4,283,129.2z M295.9,117.8
		c-1.4,1.4-5.4,3.2-6.8,5.3C290.5,123.8,295.1,118.5,295.9,117.8z M288.4,124.6c0.3-0.3,0.7-0.7,0.7-1.4
		C288.7,123.5,288.4,123.8,288.4,124.6z M330.3,82.6c0.7,0.7,5.3-3.9,5.7-4.3C333.9,79.8,332.1,80.8,330.3,82.6z M299,114.6
		l-0.7,0.7C298.7,115,298.7,115.7,299,114.6z M283,130.6l1.1-1.1C283.8,129.9,283.8,130.6,283,130.6z M303,112.1
		c-0.7,0-1.4,0.7-1.8,1.1C301.9,113.2,302.2,112.8,303,112.1z M310.1,105.7l-2.8,2.8C308.6,107.8,309,106.8,310.1,105.7z M271,144.8
		c0,0.7-0.3,0.3-0.3,0.3L271,144.8z M315.4,101.8c-1.1,0.4-1.8,1.1-2.8,2.1L315.4,101.8z M294.1,123.1l-1.1,1.1
		C293.4,123.1,293.4,123.1,294.1,123.1z M302.9,114.2l-2.1,2.1C301.2,115.3,302.2,115,302.9,114.2z M334.2,85.8
		c-1.8,0.3-3.2,1.8-3.5,2.8C332.5,87.6,333.9,86.9,334.2,85.8z"/>
</g>
</svg>
