<svg xmlns="http://www.w3.org/2000/svg" id="Layer_1" data-name="Layer 1" viewBox="0 0 240.95 165.45"><defs><clipPath id="clip-path" transform="translate(0 5.43)"><path fill="none" d="M0 0h240.95v155.9H0z"/></clipPath><style>.cls-4{fill:none;stroke:#000;stroke-miterlimit:300;stroke-width:1.08px}</style></defs><path fill="red" d="M0 5.43h240.95v155.9H0z"/><g clip-path="url(#clip-path)"><path d="M121.26 141.37l5.47-5.44 5.81 5.08-5.46 5.44-5.82-5.08zM133.53 140.94l5.12-5.77 6.11 4.71-5.12 5.77-6.11-4.71zM145.74 139.76l4.74-6.09 6.4 4.31-4.74 6.08-6.4-4.3zM157.85 137.79l4.31-6.4 6.68 3.86-4.31 6.39-6.68-3.85zM169.79 134.99l3.82-6.71 6.95 3.34-3.81 6.71-6.96-3.34zM181.49 131.29l3.23-7.01 7.21 2.74-3.23 7-7.21-2.73zM192.82 126.59l2.49-7.3 7.45 1.98-2.48 7.3-7.46-1.98zM203.59 120.74l1.49-7.56 7.65.96-1.49 7.57-7.65-.97zM213.47 113.5l.07-7.7 7.7-.45-.08 7.7-7.69.45zM221.79 104.56l-2.01-7.43 7.28-2.49 2.01 7.43-7.28 2.49zM227.32 93.73l-4.66-6.1 5.81-5.03 4.66 6.1-5.81 5.03zM228.38 81.66l-6.75-3.68 3.25-6.96 6.74 3.68-3.24 6.96zM224.44 70.17l-7.58-1.34.82-7.65 7.58 1.33-.82 7.66zM217.02 60.46l-7.7.36-.89-7.65 7.7-.37.89 7.66zM207.64 52.59l-7.56 1.53-2.05-7.43 7.56-1.54 2.05 7.44zM197.16 46.22l-7.33 2.39-2.9-7.15 7.33-2.39 2.9 7.15zM186.03 41.09l-7.08 3.07-3.56-6.85 7.08-3.07 3.56 6.85zM174.45 37.02l-6.81 3.62-4.09-6.55 6.82-3.62 4.08 6.55zM162.59 33.87l-6.53 4.1-4.55-6.24 6.54-4.09 4.54 6.23zM150.54 31.58l-6.25 4.52-4.95-5.92 6.26-4.52 4.94 5.92zM138.37 30.08l-5.96 4.91-5.31-5.6 5.95-4.9 5.32 5.59zM126.12 29.36l-5.65 5.27-5.64-5.27 5.64-5.26 5.65 5.26zM113.85 29.39l-5.31 5.6-5.96-4.91 5.31-5.59 5.96 4.9zM101.6 30.18l-4.94 5.92-6.26-4.52 4.95-5.92 6.25 4.52zM89.43 31.73l-4.54 6.24-6.54-4.1 4.54-6.23 6.54 4.09zM77.39 34.09l-4.08 6.55-6.82-3.62 4.09-6.55 6.81 3.62zM65.55 37.31L62 44.16l-7.08-3.07 3.56-6.85 7.07 3.07zM54.01 41.46l-2.9 7.15-7.33-2.39 2.9-7.15 7.33 2.39zM42.92 46.69l-2.06 7.43-7.56-1.53 2.06-7.44 7.56 1.54zM32.52 53.17l-.89 7.65-7.7-.36.89-7.66 7.7.37zM23.27 61.18l.82 7.65-7.59 1.33-.82-7.65 7.59-1.33zM16.07 71.02l3.25 6.96-6.75 3.68-3.25-6.96 6.75-3.68zM12.48 82.6l5.8 5.03-4.66 6.1-5.8-5.03 4.66-6.1zM13.88 94.64l7.28 2.49-2.01 7.43-7.28-2.49 2.01-7.43zM19.71 105.35l7.69.45.08 7.7-7.7-.45-.07-7.7zM28.21 114.14l7.65-.96 1.49 7.56-7.65.97-1.49-7.57zM38.18 121.27l7.46-1.98 2.49 7.3-7.46 1.98-2.49-7.3zM49.01 127.02l7.22-2.73 3.23 7-7.22 2.74-3.23-7.01zM60.38 131.62l6.95-3.34 3.82 6.71-6.95 3.34-3.82-6.71zM72.1 135.25l6.68-3.86 4.32 6.4-6.69 3.85-4.31-6.39zM84.06 137.98l6.41-4.31 4.74 6.09-6.41 4.3-4.74-6.08zM96.18 139.88l6.12-4.71 5.12 5.77-6.11 4.71-5.13-5.77zM108.4 141.01l5.81-5.08 5.47 5.44-5.81 5.08-5.47-5.44z" class="cls-4"/><path d="M232.32 11.5a4.75 4.75 0 01-9.49 0 4.75 4.75 0 019.49 0m2.06 0c0-3.51-2.67-6-6.81-6s-6.8 2.53-6.8 6 2.66 6 6.8 6 6.81-2.53 6.81-6m-15.95-1.21s-.48-4.83-6.15-4.83c-4.14 0-6.5 2.53-6.5 6s2.51 6 6.65 6c5.85 0 6.31-4.6 6.31-4.6l-2-.59a3.92 3.92 0 01-4.3 3.71 4.37 4.37 0 01-4.59-4.55 4.25 4.25 0 014.44-4.56 4.06 4.06 0 014.14 4zm-17.18 7h1.95V5.67h-1.95zm-10.78 0h1.95v-5.2h6.42v-1.25h-6.42v-3.9h6.84V5.67h-8.79zM181.2 6.94h.53l2.41 5.4h-5.37zm5.18 10.38h2.08l-5.4-11.65h-3.21l-5.4 11.65h2.07l1.67-3.7h6.52zm-22.24-6.61V6.94h3c1.8 0 3.18.38 3.18 1.88s-1.38 1.89-3.18 1.89zm-1.95-5v11.61h1.95V12h2c2.48 0 3.26.48 3.57 1.8.63 2.66.77 3.24 1 3.54h2c-.23-.3-.36-.81-1.16-3.87a2.85 2.85 0 00-2.67-2c2 0 3.53-.86 3.53-2.64 0-2.15-1.64-3.15-5.24-3.15zm-2.92 4.17s-.69-4.38-6.1-4.38c-4.14 0-6.5 2.53-6.5 6a5.74 5.74 0 006.05 6c3.6 0 4.41-2.46 4.41-2.46v2.25h2v-5.88h-6.35v1.28h4.4a3.77 3.77 0 01-4.18 3.36 4.21 4.21 0 01-4.29-4.55 4.25 4.25 0 014.44-4.56 3.94 3.94 0 014.09 3.5zm-25.72-2.9h.53l2.41 5.4h-5.37zm5.18 10.38h2.08l-5.4-11.65h-3.21l-5.4 11.65h2.07l1.67-3.7h6.52zM116 6.94h5v10.38h1.91V6.94h4.95V5.67H116zm-7.23 3.24c-1.29-.28-2.06-.67-2.06-1.56s1-1.68 2.58-1.68c3.51 0 3.3 2.54 3.3 2.54l2-.54s-.12-3.48-5.22-3.48c-3.27 0-4.69 1.59-4.69 3.34 0 1.4 1 2.51 3 3l2.83.66c1.71.41 2.64.74 2.64 1.86 0 1-1.12 1.76-3 1.76-4.32 0-4-3.26-4-3.26l-2 .59c.07 1.57 1.47 4.15 6 4.15 2.82 0 5-1.14 5-3.33 0-1.51-.89-2.79-3.42-3.36zm-8.87 7.14h1.95V5.67H99.9zM86.25 6.94h5v10.38h1.9V6.94h5V5.67h-11.9zm-13 0h4.95v10.38h1.91V6.94h4.95V5.67h-11.8zM62.79 17.32H72v-1.27h-7.26v-3.93h6.42v-1.28h-6.42v-3.9h6.84V5.67h-8.79zm-2.92-7.48s-.69-4.38-6.11-4.38c-4.14 0-6.49 2.53-6.49 6a5.73 5.73 0 006 6c3.6 0 4.41-2.46 4.41-2.46v2.25h2v-5.84h-6.35v1.28h4.39a3.76 3.76 0 01-4.11 3.36 4.21 4.21 0 01-4.29-4.55 4.25 4.25 0 014.44-4.56 4 4 0 014.1 3.5zM43.13 11.5a4.49 4.49 0 01-4.75 4.55 4.49 4.49 0 01-4.74-4.55 4.49 4.49 0 014.74-4.56 4.5 4.5 0 014.75 4.56m2.06 0c0-3.51-2.67-6-6.81-6s-6.8 2.53-6.8 6 2.66 6 6.8 6 6.81-2.53 6.81-6m-24-.79V6.94h3c1.8 0 3.18.38 3.18 1.88s-1.37 1.89-3.22 1.89zm-1.95-5v11.61h1.95V12h2c2.48 0 3.26.48 3.57 1.8.63 2.66.77 3.24 1 3.54h2c-.23-.3-.36-.81-1.16-3.87a2.85 2.85 0 00-2.67-2c2 0 3.53-.86 3.53-2.64 0-2.15-1.64-3.15-5.24-3.15zM9 10.71V6.94h3c1.8 0 3.18.38 3.18 1.88s-1.41 1.89-3.18 1.89zm-2-5v11.61h2V12h3c3.6 0 5.23-1 5.23-3.16S15.57 5.67 12 5.67zM142.9 147.27h-1.24v-2.92a1.76 1.76 0 00-1.92-2 2.12 2.12 0 00-1.76.8l.24.89a1.34 1.34 0 011.27-.8c.64 0 1 .39 1 1.26v2.79h-2.28v.71h2.28v2.06l1.15-.8V148h1.29zm2.3-4.8H144V148h1.2zm0 6.81H144v1h1.2zm3.1-6.81H147v1.45h1.3zm2.74 2.21a1.49 1.49 0 011.6-1.46 1.86 1.86 0 012 2c0 1.18-.61 2-1.75 2-1.31 0-1.72-1-1.64-2l-1.24.36a2.56 2.56 0 002.88 2.55 2.81 2.81 0 003-2.91 2.89 2.89 0 00-3.08-2.92c-2.63 0-3 2-3 2zm10.5-.88c0 .49-.3 1.4-2.53 2v-.35c0-.42.94-2.2 2-2.2.33 0 .53.2.53.58m-3.68 0l-.06 2.33c0 1.14.78 2 2.44 2a2.74 2.74 0 002.77-1.65l-1.24-.36a1.56 1.56 0 01-1.57 1.12 1.07 1.07 0 01-1.19-1.16c3-.34 3.8-1.63 3.8-2.56a1.23 1.23 0 00-1.34-1.22c-1.66 0-2.46 2.24-2.46 2.24v-.95a1.15 1.15 0 00-1.24-1.29 1.61 1.61 0 00-1.3.5l.24.89a.85.85 0 01.71-.5c.32 0 .45.23.44.58m7.75-1.33h-1.2V148h1.2zm0 6.81h-1.2v1h1.2zm3.92-3.52c0 .32-.33 1.51-1.1 1.51-.33 0-.49-.25-.49-.73a4.72 4.72 0 01.21-1.28l-1.24.36a3.28 3.28 0 00-.2 1.18c0 .73.29 1.36 1.21 1.36 1.53 0 1.72-1.79 1.72-1.79l.51 1.65h.58v-5.55h-1.2zm4.2-3.29h-1.2V148h1.2zm0 6.81h-1.2v1h1.2zm6.28 1a6 6 0 011.2-.11v-7.66H180v3.3a1.53 1.53 0 01-1.71 1.5c-1 0-1.57-.45-1.57-1.38v-3.42h-1.2v3.44a2 2 0 002.33 2.25 2 2 0 002.15-1.54zm3.94-5.56a1.49 1.49 0 011.6-1.46 1.86 1.86 0 011.95 2c0 1.18-.61 2-1.75 2-1.31 0-1.72-1-1.64-2l-1.24.36a2.56 2.56 0 002.88 2.55 2.81 2.81 0 003-2.91 2.89 2.89 0 00-3.08-2.92c-2.63 0-3 2-3 2zm7.53-2.21h-1.2v7.77a7 7 0 011.2-.11zm3 0h-1.2V148h1.2zm0 6.81h-1.2v1h1.2zm2.85-3.15l-1.24.36s.16 1.67 2.7 1.67c1.31 0 2.35-.61 2.35-1.66 0-.67-.46-1.28-1.7-1.5l-1.22-.22c-.88-.16-1.16-.44-1.16-.81s.43-.75 1.18-.75c2.15 0 2 1.46 2 1.46l1.24-.36s-.29-2-3.2-2c-1.37 0-2.47.67-2.47 1.74 0 .73.46 1.32 1.7 1.54l1.36.24c.76.13 1.12.39 1.12.71s-.34.71-1.15.71c-1.6 0-1.48-1.14-1.48-1.14m6.72-3.66h-1.3v1.45h1.3zm8.76 0h-1.34l-1.5 4.65-1.49-4.65h-1.32l-2.14 5.5h1.38l1.48-4.48 1.37 4.48h1.45l1.36-4.48 1.49 4.48H215zm10.11 0h-1.31l-1.5 4.65-1.49-4.65h-1.35l-2.14 5.5h1.38l1.48-4.48 1.37 4.48h1.45l1.36-4.48 1.49 4.48h1.38zm10.11 0h-1.31l-1.5 4.65-1.49-4.65h-1.32l-2.17 5.5h1.38l1.48-4.48 1.37 4.48h1.5l1.36-4.48 1.44 4.48h1.38zM7.64 146.36c0-1.72.54-3 2-3s2 1.32 2 3-.54 3-2 3-2-1.32-2-3m-1.37 0c0 2.33 1.13 4 3.4 4s3.4-1.69 3.4-4-1.13-4-3.4-4-3.4 1.69-3.4 4m7.7 3.88h7.4v-.85H15s3.65-.46 5.05-6.92h-1.4c-1.47 6.43-4.7 6.62-4.7 6.62zm10.66-1v-4.04h3.63zm4.64-4.94h-4.64v-1.88h-1.3v1.88h-1.56v.85h1.56v5h1.72l4.22-4.64zm.9-1.88v.85h2.1v6.92h1.3c0-1.52 1-2 3-2v-1c-2.48 0-3 .62-3 2.12v-6.07h3v-.85zm10.46 6.82v-4.04h3.63zm4.64-4.94h-4.64v-1.88h-1.3v1.88h-1.56v.85h1.56v5h1.72l4.22-4.64zm1.25 3.48c0 1.45 1 2.55 3.12 2.55s3.08-1.33 3.08-2.52a2.76 2.76 0 00-.95-2.06l-1.34.39a2.07 2.07 0 011 1.62 1.52 1.52 0 01-1.71 1.58 1.56 1.56 0 01-1.78-1.6c0-2.54 4.88-4.57 4.88-4.57v-.75h-6.4v.85h4.4c-1.14.72-4.25 2.12-4.25 4.51m8.92-3.22c0-.94 1-1.29 2.23-1.29s2.23.35 2.23 1.29-1.11 1.44-2.28 1.44c-.56 0-2.23-.14-2.23-1.42m4.16 3.6c0 .62-.58 1.18-1.93 1.18s-1.93-.56-1.93-1.18c0-.8.6-1.25 1.93-1.25.59 0 1.93.13 1.93 1.25m-5.23 0c0 1.3 1.47 2.17 3.3 2.17s3.3-.87 3.3-2.17-1.71-1.69-1.71-1.69 2-.31 2-1.91-1.7-2.28-3.6-2.28-3.6.68-3.6 2.28 2.17 1.79 2.17 1.79-1.87.31-1.87 1.81m17.27-1.85c0-1.72.54-3 2-3s2 1.32 2 3-.54 3-2 3-2-1.32-2-3m-1.37 0c0 2.33 1.13 4 3.4 4s3.4-1.69 3.4-4-1.13-4-3.4-4-3.4 1.69-3.4 4m8.25 1.47c0 1.45 1 2.55 3.12 2.55s3.08-1.33 3.08-2.52a2.76 2.76 0 00-1-2.06l-1.34.39a2.07 2.07 0 01.95 1.62 1.52 1.52 0 01-1.71 1.58 1.56 1.56 0 01-1.78-1.6c0-2.54 4.88-4.57 4.88-4.57v-.75h-6.4v.85h4.4c-1.14.72-4.25 2.12-4.25 4.51M89.8 146c-1.15 0-2.16-.3-2.16-1.34s.76-1.37 2-1.37a2 2 0 012.23 2.09l1.34-.39s-.1-2.69-3.6-2.69c-1.76 0-3.3.72-3.3 2.35 0 1.93 2.15 2 2.27 2-.11 0-2.07 0-2.07 1.7 0 1.13 1.18 2 3 2 3 0 3.31-2.42 3.31-2.42l-1.34-.4a1.72 1.72 0 01-1.92 1.83c-1 0-1.66-.51-1.66-1.23s.78-1.28 2-1.28h.5V146zm17.9 1.78c0 .9-.58 1.58-1.87 1.58a2 2 0 01-2-1.66 2 2 0 012-1.5c1.29 0 1.87.68 1.87 1.58m-5.43-1.46c0 2.34 1.29 4 3.56 4 1.87 0 3.24-1.07 3.24-2.57a2.5 2.5 0 00-2.72-2.57c-1.61 0-2.44.76-2.69 1.65v-.54c0-1.71.74-3 2.23-3a1.78 1.78 0 011.77 1.63l1.33-.4a3 3 0 00-3.1-2.22c-2.27 0-3.6 1.69-3.6 4m11.51-.3c-1.15 0-2.16-.3-2.16-1.34s.76-1.37 2-1.37a2 2 0 012.23 2.09l1.34-.39s-.1-2.69-3.6-2.69c-1.76 0-3.3.72-3.3 2.35 0 1.93 2.15 2 2.27 2-.11 0-2.07 0-2.07 1.7 0 1.13 1.18 2 3 2 3 0 3.31-2.42 3.31-2.42l-1.34-.4a1.72 1.72 0 01-1.92 1.83c-1 0-1.66-.51-1.66-1.23s.78-1.28 2-1.28h.5V146zm9 2.24v-2.8h2.8V145h-2.8v-2.8h-.5v2.8h-2.8v.5h2.8v2.8zM87.16 95.17c-.59-.37-1.17-.76-1.72-1.16l8.3-8.15c.72.24 1.44.46 2.17.67l7.92-7.53c.16-.15.3-.31.44-.47-1.68-.29-3.38-.65-5-1.09L88.23 88c-4.89 4.79-11.18 10.1-5.13 16.48l.6-.59c-1.2-2.47-.54-4.4 3.46-8.74" transform="translate(0 5.43)"/><path d="M46.64 95.46l3.02 2.96 8.83-2.13-3.02-2.96-8.83 2.13z"/><path d="M65.81 62.56c10.94-10.33 10.52-9.92 11.06-10.45 5.56-5.43 2.24-11-2.06-14.89l-4.17.06a7.12 7.12 0 00-2.23.3c1.39-3.25 1-6-2.48-9l-.55.53s3.09 2.19-1.33 8a57.25 57.25 0 01-7.31 7.62l-6.47 6.08C45.61 55.36 39.2 61 45.13 67.29l.6-.59c-2.41-4.37 7.08-12.46 8.89-14.24l7.56-7.14a36.91 36.91 0 004.59-4.73c.24-.35.24-.47.24-.47h9.07s2.54 4.49-2.23 8.92L61 61.26c-4.41 4.32-11.19 10.22-5.08 16.54l.61-.59c-1.52-3.48 1.69-7.56 9.31-14.65M110.83 89.27c2.66-2.82 5-6 4.7-9.47-.9 0-1.85-.1-2.88-.18-1 3.14-4.16 6.49-6.77 9 1.71.25 3.38.46 5 .62M71.06 74.32l15.3-14.95c4.11-4 2.36-8.68-1.45-12.16l-.48.47s3.8 4-2.12 9.75l-12.7 12.4c-4.47 4.37-11.6 10.63-5 16.66l.59-.49c-3-3.36 5-10.8 5.86-11.63M94.88 104.91l4.64-4.53c-1.44-.39-2.88-.84-4.3-1.35l-3.36 3.28-11.55 11.29c-.66.64-3.38 3.07-5.26 3.48l3.63.71s-1.75 3.84-1.63 6.56c0 0 1.27-3 6.1-8z" transform="translate(0 5.43)"/><path d="M82.79 130.78l3.02 2.95 8.83-2.12-3.02-2.96-8.83 2.13z"/><path d="M112.05 75a4.14 4.14 0 01.44.71l1.37.05a13.23 13.23 0 00-1.2-1.35zM107.22 109.64l6.86-6.71 8.43-8.24a7 7 0 002.35-4.87c.08-2.59-1.47-5.16-3.8-7.29l-.48.47s2.54 2.65.23 6.78a13.27 13.27 0 01-2.35 3l-9.77 9.55-2.93 2.86c-4.47 4.37-11.6 10.63-5 16.66l.54-.54c-3-3.36 5-10.81 5.87-11.63M106.5 75.33c1.38-3.26.11-6.42-2.89-9.68-.49-.54-1-1.07-1.59-1.61-5.14.18-8.16.06-10.52.24l-5.18 5.06-8.61 8.4C73 82 67 88.79 72.58 94.22l.6-.59C70.76 90 78.5 82.65 82 79.4c.09-.1 3.59-3.58 6.83-6.81l5.44-5.42 4.84-.1 4.17-.08s2.1 3.65-1.26 7.75c1.38.23 2.89.43 4.53.59M157.15 127.59s-1.75-5.59-2.15-7.68c0 0-1.15-4.9-6.23-10.21a30.23 30.23 0 00-11.24-8 16.6 16.6 0 00-9.13-.85 25.9 25.9 0 00-5.92 2.33 29.31 29.31 0 00-8 6.23s-11.49 11.58 2.9 25.64l10.46 1.12c7.68 8.68-1.21 16.77-1.21 16.77-9.13 8.92-17-.59-17.17-.47l-.12-9-3-2.95-.12 10 4.65 4.55c5.14 5 11.61 6.85 17.9 2 13.12-12.59-2.48-24-2.48-24l-10-.65s-7.37-7.21-1.27-16.25c0 0 8.59-14.17 23-12.46 0 0 10.15 1.77 13.06 16.07.78 4.54 1.57 7.67 1.57 7.67s1.69 7 7.07 9.4a10.8 10.8 0 008.65-.18l-.25-1.06s-7.79 3.36-10.94-8.1M203.77 98.78l-10.28.22-14 13.65s-4.59 4.25-5.44 7.56c0 0-3 6.08 4.48 12.75l.54-.53a8.64 8.64 0 01-1.39-10.92s.73-1.78 6.89-7.8l11.79-11.52 8.59-.47s1.33 3.78-2.91 7.91l2.91 2.84c3-2.6 5.44-8.62-1.21-13.7M139.32 54.12l-.63.62c1.56.37 3.15.78 4.73 1.27 4-4.07 7.73-9.14 2.31-14l-.54.53c3 3.36-5 10.81-5.87 11.63M162.41 98.89l3.39-3.07 13 4.79c-12.09 11.46-11.61 12.17-11.61 12.17l-10.58-2.07c-2.18-5 5.8-11.82 5.8-11.82m-8.82 8.27a9.3 9.3 0 006.22 6.32l6.29 1.42c-2.42 5.2 2.78 8.86 2.78 8.86l.55-.53c-2.18-2.13-.31-6-.31-6 1.33-2.59 7-8.09 7-8.09l9.88-9.66c4.72-4.72 8.53-10 3-15.35-4.29-4.2-9.37-5.26-14-.71l3.08 3c5.75-5.61 10-2 10-2 3 5-6 12.94-6 12.94l-2 2-17.35-6.44a42.19 42.19 0 00-4.9 4.19c-5.44 5.32-4.29 10.1-4.29 10.1M151 59a35.52 35.52 0 013.92 2.33l8.3-.45s1.33 3.78-3 8l2.9 2.83c4.48-4.6 3.75-10.15-1.09-13.7-7.13 0-7.74.47-7.74.47.25-.23.43-.88 1-5L153 51.17l-1.57 7.44z" transform="translate(0 5.43)"/><path d="M188.11 67.65l-3.02-2.96-8.83 2.13 3.02 2.95 8.83-2.12zM151.9 43.02l3.02 2.95 8.83-2.13-3.03-2.95-8.82 2.13z"/><path d="M83.1 38.06a22.76 22.76 0 01-.3-32.78c9.06-8.86 21-7.56 21-7.56l-3-2.9c-12.69-2-22.18 8.57-22.18 8.57-7.86 8.5-9.31 22.92 3.68 35.61s23.52 7.15 23.52 7.15L102.69 43s-9.31 5.08-19.59-5" transform="translate(0 5.43)"/><path d="M84.25 16c6.89 7.56 12.39 1.36 12.39 1.36l16.5-16.13C120.52-5.95 125.36 0 125.36 0c5.26 5.14-.36 10.63-1.76 12l3 2.9c8.16-8-.18-15.3-.18-15.3-9.07-9.1-16-1.6-16-1.6L93.56 14.37c-5 4.85-8.77 1.13-8.77 1.13z" transform="translate(0 5.43)"/><path d="M153.84 67.58l-6.61 1.23-.01 5.23 6.62-6.46z"/><path d="M135.76 20.28L124 31.74l-13.64 13.35c-2.66 2.6-5.77 5.68-6.83 9-.88 2.7-.39 5.54 2.84 8.38l.61-.59c-2.07-2.31-.67-5.54 1.6-8.55a72.51 72.51 0 016.8-7.22l11.79-11.52 9.07-.35s2.42 4.25-2.3 8.86l-9.84 9.6c1.5.08 3.39.23 5.54.49L137 46c5.45-5.31 3.21-10-2.29-14.77l-4.66.18c.36 0 1.82-1.42 2.9-2.48l5.87-5.73c.72-.71 3.32-3.25 5.38-3.48l-3.73-.72s1.81-3.9 1.63-6.56c0 0-1.27 2.9-6.34 7.86M135.78 80.64c-1.44-.17-3-.3-4.67-.41-1.29 2.91-1 5.92 2.65 9l.6-.59c-2-1.88-.72-5 1.42-8M128.08 71l5.77-5.64c-1.79-.35-3.55-.62-5.2-.83L124 69.07a6.67 6.67 0 00-2.11 6.84c.84 0 1.85 0 3 .09a10.42 10.42 0 013.15-5M119.34 64c-1.56 0-3.24.07-5 .18-1.07 2.77-.73 5.7 2.6 8.63l.61-.59c-1.75-2.12-.59-5 1.78-8.22M146.31 69.5a32.52 32.52 0 00-4.13-1.87l-4.37 4.27c-1.53 1.57-3.14 3.18-4.46 4.84 1.61.21 3.26.48 4.92.81 1.84-2.07 3.71-3.82 4.62-4.7zM125.48 81.24l.48-.48a3.81 3.81 0 01-.53-.77h-1.19a16.4 16.4 0 001.24 1.27" transform="translate(0 5.43)"/><path fill="none" stroke="#000" stroke-miterlimit="10" stroke-width=".99" d="M150.07 91.33l-7.86.73.46 5.8c-.45-.43-3.71-2.66-22.18-2.66-4.92 0-16.6-.55-26.75-3.91l-8.3 8.14c12.42 9.15 34 9.26 35.05 9.26 3.57 0 34.77-.38 34.77-13.67 0-2.54-.86-6.29-8.36-9.52-9.27-3.88-22.55-4.17-26.41-4.17-15.21 0-23.68-1.36-28-4.59 5.79-6.37 19.32-7.31 28-7.31 4.88 0 18.62 1.12 26.73 6v-6.62l8.32-1.55C143.12 58.11 121.49 58 120.48 58c-3.56 0-34.77.38-34.77 13.68 0 2.53.87 6.28 8.37 9.51 9.27 3.88 22.55 4.18 26.4 4.17 17.23 0 25.81 1.74 29.59 5.97z"/><path d="M163.68 77.93l-8.94 8.74a7.78 7.78 0 01.52 2.92 7.68 7.68 0 01-.66 3.12l10.54-10.3c4.47-4.37 11.6-10.63 5-16.65l-.54.53c3 3.37-5 10.81-5.87 11.64M146.2 99.38a11.38 11.38 0 003.64 5.66l.48-.48s-2.73-2.87.09-7.29a23.64 23.64 0 01-4.21 2.11" transform="translate(0 5.43)"/></g></svg>