<svg id="Layer_1" data-name="Layer 1" xmlns="http://www.w3.org/2000/svg" viewBox="0 0 240.9 165.4">
  <defs>
    <clipPath id="clip-path" transform="translate(0 5.4)">
      <path fill="none" d="M0 0h240.9v155.9H0z"/>
    </clipPath>
    <style>
      .cls-4{fill:none;stroke:#231f20;stroke-miterlimit:300;stroke-width:1.08px}.cls-5{fill:#231f20}
    </style>
  </defs>
  <path fill="red" d="M0 5.4h240.9v155.9H0z"/>
  <g clip-path="url(#clip-path)">
    <path class="cls-4" d="M121.3 141.4l5.4-5.5 5.8 5.1-5.4 5.4-5.8-5zM133.5 141l5.2-5.8 6 4.7-5 5.8-6.2-4.8zM145.7 139.8l4.8-6.1 6.4 4.3-4.8 6-6.4-4.2zM157.8 137.8l4.4-6.4 6.6 3.8-4.3 6.4-6.7-3.8zM169.8 135l3.8-6.7 7 3.3-3.8 6.7-7-3.3zM181.5 131.3l3.2-7 7.2 2.7-3.2 7-7.2-2.7zM192.8 126.6l2.5-7.3 7.5 2-2.5 7.3-7.5-2zM203.6 120.7l1.5-7.5 7.6 1-1.5 7.5-7.6-1zM213.5 113.5v-7.7l7.7-.5v7.8l-7.7.4zM221.8 104.6l-2-7.5 7.3-2.5 2 7.5-7.3 2.5zM227.3 93.7l-4.6-6 5.8-5.1 4.6 6.1-5.8 5zM228.4 81.7l-6.8-3.7 3.3-7 6.7 3.7-3.2 7zM224.4 70.2l-7.5-1.4.8-7.6 7.6 1.3-.9 7.7zM217 60.5l-7.7.3-.9-7.6 7.7-.4 1 7.7zM207.6 52.6l-7.5 1.5-2-7.4 7.5-1.6 2 7.5zM197.2 46.2l-7.4 2.4-2.9-7.1 7.4-2.4 2.9 7.1zM186 41l-7 3.2-3.6-6.9 7-3L186 41zM174.4 37l-6.8 3.6-4-6.5 6.8-3.6 4 6.5zM162.6 33.9l-6.5 4-4.6-6.2 6.6-4 4.5 6.2zM150.5 31.6l-6.2 4.5-5-6 6.3-4.4 5 5.9zM138.4 30l-6 5-5.3-5.6 6-5 5.3 5.7zM126.1 29.4l-5.6 5.2-5.7-5.2 5.7-5.3 5.6 5.3zM113.8 29.4l-5.3 5.6-6-5 5.4-5.5 6 4.9zM101.6 30.2l-5 5.9-6.2-4.5 5-6 6.2 4.6zM89.4 31.7L85 38l-6.6-4.1 4.6-6.3 6.5 4.1zM77.4 34l-4 6.6-7-3.6 4.2-6.5 6.8 3.6zM65.5 37.3L62 44.2 55 41l3.5-6.9 7 3.1zM54 41.5l-2.9 7.1-7.3-2.4 2.9-7.1 7.3 2.4zM43 46.7L40.8 54l-7.6-1.5 2-7.5 7.6 1.6zM32.5 53.2l-.9 7.6-7.7-.3 1-7.7 7.6.4zM23.3 61.2l.8 7.6-7.6 1.4-.8-7.7 7.6-1.3zM16 71l3.3 7-6.7 3.7-3.3-7 6.8-3.7zM12.5 82.6l5.8 5-4.7 6.1-5.8-5 4.7-6.1zM13.9 94.6l7.3 2.5-2 7.5-7.3-2.5 2-7.5zM19.7 105.3l7.7.5v7.7l-7.6-.5v-7.7zM28.2 114.1l7.7-1 1.5 7.6-7.7 1-1.5-7.6zM38.2 121.3l7.4-2 2.5 7.3-7.4 2-2.5-7.3zM49 127l7.2-2.7 3.3 7-7.3 2.7-3.2-7zM60.4 131.6l7-3.3 3.8 6.7-7 3.3-3.8-6.7zM72.1 135.3l6.7-4 4.3 6.5-6.7 3.8-4.3-6.3zM84 138l6.5-4.3 4.7 6-6.4 4.4-4.7-6.1zM96.2 139.9l6.1-4.7 5.1 5.7-6 4.8-5.2-5.8zM108.4 141l5.8-5 5.5 5.4-5.8 5-5.5-5.4z"/>
    <path class="cls-5" d="M232.3 11.5a4.8 4.8 0 01-9.5 0 4.8 4.8 0 019.5 0m2 0c0-3.5-2.6-6-6.7-6s-6.8 2.5-6.8 6 2.6 6 6.8 6 6.8-2.5 6.8-6m-16-1.2s-.4-4.8-6.1-4.8c-4.2 0-6.5 2.5-6.5 6s2.5 6 6.6 6c5.9 0 6.3-4.6 6.3-4.6l-2-.6a4 4 0 01-4.3 3.7 4.4 4.4 0 01-4.6-4.6 4.3 4.3 0 014.5-4.5 4 4 0 014.1 4zm-17.1 7h1.9V5.7h-2zm-10.8 0h2V12h6.3v-1.3h-6.4V7h6.9V5.7h-8.8zm-9.3-10.4h.5l2.4 5.4h-5.3zm5.2 10.4h2l-5.3-11.6h-3.2l-5.5 11.6h2.1l1.7-3.7h6.5zM164 10.7V7h3c1.8 0 3.2.4 3.2 2s-1.4 1.8-3.2 1.8zm-2-5v11.6h2V12h2c2.5 0 3.3.5 3.6 1.8.6 2.7.8 3.2 1 3.5h2c-.2-.3-.4-.8-1.2-3.8a2.9 2.9 0 00-2.6-2c2 0 3.5-.9 3.5-2.7 0-2.1-1.6-3.1-5.2-3.1zm-2.8 4.2s-.7-4.4-6.1-4.4c-4.2 0-6.5 2.5-6.5 6a5.7 5.7 0 006 6c3.6 0 4.4-2.5 4.4-2.5v2.3h2v-5.9h-6.3v1.3h4.4A3.8 3.8 0 01153 16a4.2 4.2 0 01-4.3-4.6 4.3 4.3 0 014.5-4.6 4 4 0 014 3.5zm-25.8-3h.6l2.4 5.5H131zm5.2 10.5h2.1l-5.4-11.7h-3.2l-5.4 11.7h2l1.7-3.7h6.6zM116 6.9h5v10.4h2V7h4.9V5.7H116zm-7.2 3.3c-1.3-.3-2-.7-2-1.6s1-1.7 2.5-1.7c3.5 0 3.3 2.6 3.3 2.6l2-.6s-.1-3.4-5.2-3.4c-3.3 0-4.7 1.6-4.7 3.3 0 1.4 1 2.5 3 3l2.8.7c1.7.4 2.6.7 2.6 1.8 0 1-1 1.8-3 1.8-4.3 0-4-3.3-4-3.3l-2 .6c.1 1.6 1.5 4.2 6 4.2 2.9 0 5-1.2 5-3.4 0-1.5-.8-2.8-3.4-3.3zm-8.9 7.1h2V5.7h-2zM86.2 7h5v10.4h2V7h5V5.7h-12zm-13 0h5v10.4h2V7H85V5.7H73.3zM62.9 17.3H72V16h-7.3v-3.9h6.5v-1.3h-6.5V7h6.9V5.7h-8.8zm-3-7.5s-.6-4.3-6-4.3c-4.2 0-6.5 2.5-6.5 6a5.7 5.7 0 006 6c3.6 0 4.4-2.5 4.4-2.5v2.3h2v-5.9h-6.4v1.3h4.4a3.8 3.8 0 01-4 3.4 4.2 4.2 0 01-4.4-4.6 4.3 4.3 0 014.5-4.6 4 4 0 014 3.5zm-16.7 1.7a4.5 4.5 0 01-4.7 4.5 4.5 4.5 0 01-4.8-4.5 4.5 4.5 0 014.8-4.6 4.5 4.5 0 014.7 4.6m2 0c0-3.5-2.6-6-6.7-6s-6.8 2.5-6.8 6 2.6 6 6.8 6 6.8-2.5 6.8-6m-24-.8V7h3c1.8 0 3.2.4 3.2 2S26 10.6 24 10.6zm-2-5v11.6h2V12h2c2.5 0 3.3.5 3.6 1.8.6 2.7.7 3.2 1 3.5h2c-.3-.3-.4-.8-1.2-3.8a2.9 2.9 0 00-2.7-2c2 0 3.6-.9 3.6-2.7 0-2.1-1.7-3.1-5.3-3.1zM9 10.7V7h3c1.8 0 3.2.4 3.2 2s-1.4 1.8-3.2 1.8zm-2-5v11.6h2V12h3c3.6 0 5.2-1 5.2-3.2S15.6 5.7 12 5.7zM142.9 147.3h-1.2v-3a1.8 1.8 0 00-2-2 2.1 2.1 0 00-1.7.9l.2.8a1.3 1.3 0 011.3-.8c.6 0 1 .4 1 1.3v2.8h-2.3v.7h2.3v2l1.1-.7V148h1.3zm2.3-4.8H144v5.5h1.2zm0 6.8H144v1h1.2zm3.1-6.8H147v1.4h1.3zm2.7 2.2a1.5 1.5 0 011.6-1.5 1.9 1.9 0 012 2c0 1.2-.6 2-1.7 2-1.3 0-1.7-1-1.6-2l-1.3.4a2.6 2.6 0 002.9 2.5 2.8 2.8 0 003-2.9 2.9 2.9 0 00-3-2.9c-2.7 0-3 2-3 2zm10.5-.9c0 .5-.3 1.4-2.5 2v-.3c0-.5 1-2.2 2-2.2.3 0 .5.2.5.5m-3.6 0l-.1 2.4c0 1.1.8 2 2.4 2a2.7 2.7 0 002.8-1.7l-1.2-.3a1.6 1.6 0 01-1.6 1 1 1 0 01-1.2-1c3-.4 3.8-1.7 3.8-2.6a1.2 1.2 0 00-1.3-1.3c-1.7 0-2.5 2.3-2.5 2.3v-1a1.1 1.1 0 00-1.2-1.3 1.6 1.6 0 00-1.3.5l.2 1a.8.8 0 01.7-.6c.3 0 .5.3.5.6m7.7-1.3h-1.2v5.5h1.2zm0 6.8h-1.2v1h1.2zm4-3.5c0 .3-.4 1.5-1.2 1.5-.3 0-.5-.3-.5-.8a4.7 4.7 0 01.2-1.2l-1.2.3a3.3 3.3 0 00-.2 1.2c0 .7.3 1.4 1.2 1.4 1.6 0 1.7-1.8 1.7-1.8l.6 1.6h.5v-5.5h-1.2zm4.1-3.3h-1.2v5.5h1.2zm0 6.8h-1.2v1h1.2zm6.3 1a6 6 0 011.2-.1v-7.7H180v3.3a1.5 1.5 0 01-1.7 1.5c-1 0-1.6-.4-1.6-1.4v-3.4h-1.2v3.5a2 2 0 002.4 2.2 2 2 0 002.1-1.5zm4-5.6a1.5 1.5 0 011.5-1.4 1.9 1.9 0 012 2c0 1.1-.6 2-1.8 2-1.3 0-1.7-1-1.6-2l-1.2.3a2.6 2.6 0 002.8 2.6 2.8 2.8 0 003-3 2.9 2.9 0 00-3-2.9c-2.7 0-3 2-3 2zm7.5-2.2h-1.2v7.8a7 7 0 011.2-.1zm3 0h-1.2v5.5h1.2zm0 6.8h-1.2v1h1.2zm2.8-3.1l-1.2.3s.1 1.7 2.7 1.7c1.3 0 2.3-.6 2.3-1.7 0-.6-.4-1.2-1.7-1.5l-1.2-.2c-.9-.1-1.1-.4-1.1-.8s.4-.7 1.1-.7c2.2 0 2 1.4 2 1.4l1.3-.3s-.3-2-3.2-2c-1.4 0-2.5.6-2.5 1.7 0 .7.5 1.3 1.7 1.5l1.4.3c.7.1 1 .4 1 .7s-.2.7-1 .7c-1.7 0-1.5-1.1-1.5-1.1m6.7-3.7h-1.3v1.5h1.3zm8.7 0h-1.3l-1.5 4.7-1.5-4.7h-1.3L205 148h1.3l1.5-4.5 1.4 4.5h1.4l1.4-4.5 1.5 4.5h1.4zm10.1 0h-1.3l-1.5 4.7-1.5-4.7h-1.3l-2.1 5.5h1.3l1.5-4.5 1.4 4.5h1.4l1.4-4.5 1.5 4.5h1.4zm10.2 0h-1.3l-1.6 4.7-1.4-4.7h-1.4l-2.1 5.5h1.3l1.5-4.5 1.4 4.5h1.5l1.4-4.5 1.4 4.5h1.4zM7.6 146.4c0-1.8.6-3 2-3s2 1.3 2 3-.5 3-2 3-2-1.4-2-3m-1.3 0c0 2.3 1.1 4 3.4 4s3.4-1.7 3.4-4-1.2-4-3.4-4-3.4 1.7-3.4 4m7.7 3.8h7.4v-.8H15s3.6-.5 5-7h-1.3c-1.5 6.5-4.7 6.7-4.7 6.7zm10.6-1v-4h3.7zm4.7-4.9h-4.7v-1.9h-1.3v1.9h-1.5v.8h1.5v5H25l4.3-4.6zm.9-1.9v.9h2v6.9h1.4c0-1.5 1-2 3-2v-1c-2.5 0-3 .6-3 2.1v-6h3v-1zm10.4 6.8v-4h3.7zm4.7-4.9h-4.7v-1.9h-1.3v1.9h-1.5v.8h1.5v5h1.8l4.2-4.6zm1.2 3.5c0 1.4 1 2.5 3.1 2.5s3.1-1.3 3.1-2.5a2.8 2.8 0 00-1-2l-1.3.3a2 2 0 011 1.7 1.5 1.5 0 01-1.7 1.5 1.6 1.6 0 01-1.8-1.6c0-2.5 5-4.5 5-4.5v-.8h-6.5v.9h4.4c-1.1.7-4.2 2-4.2 4.5m8.9-3.2c0-1 1-1.3 2.2-1.3s2.2.3 2.2 1.3-1 1.4-2.2 1.4c-.6 0-2.3-.1-2.3-1.4m4.2 3.6c0 .6-.6 1.2-2 1.2s-1.9-.6-1.9-1.2c0-.8.6-1.3 2-1.3.6 0 1.9.2 1.9 1.3m-5.2 0c0 1.3 1.4 2.2 3.3 2.2s3.3-1 3.3-2.2-1.7-1.7-1.7-1.7 2-.3 2-2-1.7-2.2-3.6-2.2-3.6.7-3.6 2.3 2.1 1.8 2.1 1.8-1.8.3-1.8 1.8m17.2-1.9c0-1.7.6-3 2-3s2 1.4 2 3-.5 3-2 3-2-1.3-2-3m-1.3 0c0 2.4 1 4 3.4 4s3.4-1.7 3.4-4-1.2-4-3.4-4-3.4 1.7-3.4 4m8.2 1.5c0 1.4 1 2.5 3.1 2.5s3.1-1.3 3.1-2.5a2.8 2.8 0 00-1-2l-1.3.4a2 2 0 011 1.6 1.5 1.5 0 01-1.8 1.6 1.6 1.6 0 01-1.8-1.6c0-2.6 5-4.6 5-4.6v-.8h-6.5v.9h4.4c-1.1.7-4.2 2.1-4.2 4.5m11.3-1.8c-1.1 0-2.2-.3-2.2-1.3s.8-1.4 2-1.4a2 2 0 012.3 2l1.3-.3s0-2.7-3.6-2.7c-1.7 0-3.3.7-3.3 2.4 0 1.9 2.2 2 2.3 2-.1 0-2 0-2 1.7 0 1 1 2 3 2 3 0 3.2-2.5 3.2-2.5l-1.3-.4a1.7 1.7 0 01-2 1.9c-1 0-1.6-.5-1.6-1.3s.8-1.2 2-1.2h.5v-.9zm17.9 1.8c0 .9-.6 1.6-1.9 1.6a2 2 0 01-2-1.7 2 2 0 012-1.5c1.3 0 1.9.7 1.9 1.6m-5.4-1.5c0 2.4 1.3 4 3.5 4 1.9 0 3.3-1 3.3-2.5a2.5 2.5 0 00-2.8-2.6c-1.6 0-2.4.7-2.6 1.6v-.5c0-1.7.7-3 2.2-3a1.8 1.8 0 011.8 1.6l1.3-.4a3 3 0 00-3.1-2.2c-2.3 0-3.6 1.7-3.6 4m11.5-.3c-1.1 0-2.2-.3-2.2-1.3s.8-1.4 2-1.4a2 2 0 012.3 2l1.3-.3s0-2.7-3.6-2.7c-1.7 0-3.3.7-3.3 2.4 0 1.9 2.2 2 2.3 2-.1 0-2 0-2 1.7 0 1 1 2 3 2 3 0 3.2-2.5 3.2-2.5l-1.3-.4a1.7 1.7 0 01-2 1.9c-1 0-1.6-.5-1.6-1.3s.8-1.2 2-1.2h.5v-.9zm9 2.2v-2.8h2.8v-.4h-2.8v-2.8h-.5v2.8h-2.8v.5h2.8v2.8zM87.2 95.2L85.4 94l8.3-8.1 2.2.6 8-7.5.4-.5-5-1-11 10.5c-5 4.8-11.2 10.1-5.2 16.5l.6-.6c-1.2-2.5-.5-4.4 3.5-8.8" transform="translate(0 5.4)"/>
    <path class="cls-5" d="M46.6 95.5l3 3 8.9-2.2-3-3-8.9 2.2z"/>
    <path class="cls-5" d="M65.8 62.6l11-10.5c5.6-5.4 2.3-11-2-14.9h-4.2a7.1 7.1 0 00-2.2.4c1.4-3.3 1-6-2.5-9l-.5.5s3 2.2-1.4 8a57.3 57.3 0 01-7.3 7.6l-6.4 6.1C45.6 55.4 39.2 61 45 67.3l.6-.6c-2.4-4.4 7.1-12.5 9-14.2l7.5-7.2a37 37 0 004.6-4.7l.2-.5h9s2.6 4.5-2.1 9L61 61.2c-4.4 4.3-11.2 10.2-5 16.5l.5-.6c-1.5-3.5 1.7-7.6 9.3-14.6M110.8 89.3c2.7-2.9 5-6 4.7-9.5l-2.8-.2c-1 3.2-4.2 6.5-6.8 9l5 .6M71 74.3l15.4-15c4-4 2.3-8.6-1.5-12l-.5.4s3.8 4-2 9.7L69.5 69.8c-4.5 4.4-11.6 10.7-5 16.7l.6-.5c-3-3.4 5-10.8 5.9-11.6M94.9 105l4.6-4.6-4.3-1.4-3.3 3.3-11.6 11.3c-.6.6-3.4 3-5.2 3.5l3.6.7s-1.8 3.8-1.7 6.5c0 0 1.3-3 6.1-8z" transform="translate(0 5.4)"/>
    <path class="cls-5" d="M82.8 130.8l3 3 8.8-2.2-3-3-8.8 2.2z"/>
    <path class="cls-5" d="M112 75a4.1 4.1 0 01.5.7h1.4a13.2 13.2 0 00-1.2-1.3zM107.2 109.6l6.9-6.7 8.4-8.2a7 7 0 002.4-4.9c0-2.6-1.5-5.1-3.8-7.3l-.5.5s2.5 2.6.2 6.8a13.3 13.3 0 01-2.3 3l-9.8 9.5-3 2.9c-4.4 4.4-11.5 10.6-5 16.6l.6-.5c-3-3.4 5-10.8 5.9-11.6M106.5 75.3c1.4-3.2.1-6.4-2.9-9.6L102 64c-5.1.2-8.1.1-10.5.3l-5.2 5-8.6 8.4C73 82 67 88.7 72.6 94.2l.6-.6c-2.4-3.6 5.3-11 8.8-14.2l6.8-6.8 5.5-5.4L99 67l4.2-.1s2 3.6-1.3 7.7c1.4.3 3 .5 4.5.6M157.2 127.6s-1.8-5.6-2.2-7.7c0 0-1.1-4.9-6.2-10.2a30.2 30.2 0 00-11.3-8 16.6 16.6 0 00-9.1-.9 25.9 25.9 0 00-6 2.4 29.3 29.3 0 00-8 6.2s-11.4 11.6 3 25.6l10.4 1.2c7.7 8.7-1.2 16.7-1.2 16.7-9.1 9-17-.5-17.1-.4l-.2-9-3-3v10l4.6 4.6c5.1 5 11.6 6.8 17.9 2 13-12.6-2.5-24-2.5-24l-10-.7s-7.4-7.2-1.3-16.2c0 0 8.6-14.2 23-12.5 0 0 10.2 1.8 13 16 .9 4.6 1.7 7.8 1.7 7.8s1.6 7 7 9.4a10.8 10.8 0 008.7-.2l-.3-1s-7.8 3.3-11-8.2M203.8 98.8l-10.3.2-14 13.7s-4.6 4.2-5.4 7.5c0 0-3 6 4.4 12.8l.6-.6a8.6 8.6 0 01-1.4-10.9s.7-1.8 6.9-7.8l11.8-11.5 8.5-.5s1.4 3.8-2.9 8l3 2.8c3-2.6 5.4-8.6-1.3-13.7M139.3 54.1l-.6.6 4.7 1.3c4-4 7.7-9.1 2.3-14l-.5.5c3 3.4-5 10.8-5.9 11.7M162.4 98.9l3.4-3 13 4.7c-12 11.5-11.6 12.2-11.6 12.2l-10.6-2c-2.2-5 5.8-12 5.8-12m-8.8 8.4a9.3 9.3 0 006.2 6.3l6.3 1.4c-2.4 5.2 2.8 8.9 2.8 8.9l.5-.6c-2.1-2.1-.3-6-.3-6 1.4-2.6 7-8 7-8l9.9-9.7c4.7-4.7 8.5-10 3-15.4-4.3-4.2-9.4-5.2-14-.7l3 3c5.8-5.6 10-2 10-2 3 5-6 13-6 13l-2 2-17.3-6.5a42.2 42.2 0 00-4.9 4.2c-5.4 5.3-4.3 10.1-4.3 10.1M151 59a35.5 35.5 0 014 2.3l8.2-.4s1.4 3.8-3 8l3 2.8c4.4-4.6 3.7-10.1-1.2-13.7-7.1 0-7.7.5-7.7.5.2-.3.4-.9 1-5l-2.3-2.3-1.6 7.4z" transform="translate(0 5.4)"/>
    <path class="cls-5" d="M188.1 67.7l-3-3-8.8 2.1 3 3 8.8-2.1zM151.9 43l3 3 8.8-2.2-3-3L152 43z"/>
    <path class="cls-5" d="M83.1 38a22.8 22.8 0 01-.3-32.7c9-8.9 21-7.6 21-7.6l-3-2.9c-12.7-2-22.2 8.6-22.2 8.6-7.8 8.5-9.3 23 3.7 35.6s23.5 7.2 23.5 7.2l-3.1-3.2s-9.3 5-19.6-5" transform="translate(0 5.4)"/>
    <path class="cls-5" d="M84.3 16c6.8 7.6 12.3 1.4 12.3 1.4l16.5-16.2C120.5-6 125.4 0 125.4 0c5.2 5.1-.4 10.6-1.8 12l3 2.9c8.2-8-.2-15.3-.2-15.3-9-9.1-16-1.6-16-1.6L93.6 14.4c-5 4.8-8.8 1.1-8.8 1.1z" transform="translate(0 5.4)"/>
    <path class="cls-5" d="M153.8 67.6l-6.6 1.2V74l6.6-6.4z"/>
    <path class="cls-5" d="M135.8 20.3L124 31.7l-13.6 13.4a25.2 25.2 0 00-6.9 9c-.8 2.7-.4 5.5 2.9 8.4l.6-.6c-2-2.3-.7-5.6 1.6-8.6a72.5 72.5 0 016.8-7.2l11.8-11.5 9-.4s2.5 4.3-2.3 8.9l-9.8 9.6c1.5 0 3.4.2 5.5.5L137 46c5.5-5.3 3.2-10-2.3-14.8l-4.6.2c.3 0 1.8-1.4 2.9-2.5l5.8-5.7c.7-.7 3.3-3.3 5.4-3.5l-3.7-.7s1.8-3.9 1.6-6.6c0 0-1.3 3-6.3 7.9M135.8 80.6l-4.7-.4c-1.3 3-1 6 2.7 9l.6-.6c-2-1.8-.8-5 1.4-8M128 71l5.9-5.6-5.2-.9-4.7 4.6a6.7 6.7 0 00-2.1 6.8l3 .1a10.4 10.4 0 013.1-5M119.3 64c-1.5 0-3.2 0-5 .2-1 2.8-.7 5.7 2.6 8.6l.6-.6c-1.7-2.1-.5-5 1.8-8.2M146.3 69.5a32.5 32.5 0 00-4.1-1.9l-4.4 4.3-4.5 4.8 5 .8c1.8-2 3.7-3.8 4.6-4.7zM125.5 81.2l.5-.4a3.8 3.8 0 01-.6-.8h-1.2a16.4 16.4 0 001.3 1.3" transform="translate(0 5.4)"/>
    <path d="M150 85.9l-7.8.7.5 5.8c-.5-.4-3.7-2.6-22.2-2.6a93 93 0 01-26.8-4L85.4 94c12.5 9.2 34 9.3 35 9.3 3.7 0 34.9-.4 34.9-13.7 0-2.5-.9-6.3-8.4-9.5a78.1 78.1 0 00-26.4-4.2c-15.2 0-23.7-1.4-28-4.6 5.8-6.4 19.3-7.3 28-7.3 4.9 0 18.6 1.1 26.7 6v-6.6l8.3-1.6c-12.4-9.1-34-9.2-35-9.2-3.6 0-34.8.4-34.8 13.7 0 2.5.9 6.2 8.4 9.5a77.8 77.8 0 0026.4 4.1c17.2 0 25.8 1.8 29.6 6z" transform="translate(0 5.4)" stroke-miterlimit="10" stroke="#231f20" fill="none"/>
    <path class="cls-5" d="M163.7 78l-9 8.7a7.8 7.8 0 01.6 2.9 7.7 7.7 0 01-.7 3.1l10.5-10.3c4.5-4.4 11.6-10.6 5-16.6l-.5.5c3 3.4-5 10.8-5.9 11.6M146.2 99.4a11.4 11.4 0 003.6 5.6l.5-.4s-2.7-3 .1-7.3a23.6 23.6 0 01-4.2 2" transform="translate(0 5.4)"/>
  </g>
</svg>
