<svg xmlns="http://www.w3.org/2000/svg" xmlns:xlink="http://www.w3.org/1999/xlink" id="Layer_1" x="0" y="0" version="1.1" viewBox="0 0 1000 1000" xml:space="preserve" style="enable-background:new 0 0 1000 1000"><g><g><polygon points="975.9 423 957.6 405.2 904.3 418 922.5 435.9"/><g><path d="M860.1,589c-66.1,62.5-63.6,60-66.9,63.2c-33.6,32.8-13.5,66.8,12.4,90l25.2-0.4c5.1,0,11-0.7,13.5-1.8 c-8.4,19.6-5.8,36.4,15,54.6l3.3-3.2c0,0-18.6-13.2,8-48.6c0,0,12.1-16.8,44.2-46l39.1-36.8c28.1-27.5,66.9-61.8,31.1-99.6 l-3.7,3.6c14.6,26.4-42.8,75.3-53.7,86c-0.7,0.7-45.7,43.2-45.7,43.2s-21.2,18.6-27.8,28.6c-1.5,2.1-1.5,2.9-1.5,2.9h-54.8 c0,0-15.3-27.1,13.5-53.9l77.8-73.9c26.7-26.1,67.6-61.8,30.7-100l-3.7,3.6C925.5,521.5,906.1,546.2,860.1,589"/><path d="M828.3,518c0,0-88.8,86.8-92.5,90.3c-24.9,24.3-14.3,52.5,8.8,73.5l2.9-2.9c0,0-23-23.9,12.8-58.9l76.7-75 c27-26.4,70.2-64.3,30-100.7l-3.3,3.2C881.6,468,833.4,513,828.3,518"/></g><polygon points="757.4 209.5 739.1 191.7 685.8 204.5 704.1 222.4"/><g><path d="M497.7,480.6c-11.1-0.3-21.5-0.7-31.2-1.3c6.4-16.7,3.8-33.9-17.2-51.4l-3.7,3.6c11.4,10.8,5.1,28.2-6.6,45.5 c-40.7-4.5-66.4-13.1-81.6-26.6l44-4.1l-2.5-32.2c10.3,4.8,37,11.7,104.3,13.1c0.7,14.6,9.7,29,22.8,41.1l2.9-2.9 c0,0-14-14.7-2.9-38c1.2,0,2.2,0,3.4,0c7.1,0,28.3,0.3,55.8,2.9c-14.2,15.5-26.2,32.8-25.8,51.3c-13.1-0.7-23.7-0.8-30-0.8 c-9,0-17.4-0.1-25.6-0.3c-1.5-1.5-2.9-3.1-4.5-4.6l-2.9,2.9C496.5,479,497,479.6,497.7,480.6 M630,489.6 c-18.2-3.3-36.1-5.3-52-6.6c6.5-17.1,22.7-34.8,37.1-49c19.3,2.8,40.1,6.8,60.4,12.6l-45.3,42.8 C630.2,489.5,630.1,489.6,630,489.6 M529.5,346.1c5.4,0,132.6,0.7,207.2,53.3l-46.3,45.4c-68.1-22.1-145.9-23.2-160.9-23.2 c-112.9,0-130.3-13.7-131.9-15.2l-5.7-5.5l3.1,40l-50.5,4.7l4,4.5c23.5,26.3,76,37.1,181,37c23.1,0,102.9,1.8,158.4,25 c14,6,24,12.3,31.1,18.5c-16.2,16.1-30.7,30.6-30.7,30.6l-20.7,0.4c14-6.4,25.3-14.2,33.7-23.4l2.3-2.5l-2.7-2 c-26.9-19.8-78.1-28.3-171.4-28.3c-23.1,0-102.8-1.8-158.4-25c-43.7-18.8-48.7-40.2-48.7-54.7 C322.4,348.3,508.3,346.1,529.5,346.1 M639.5,518.2c24.6,4.1,42.4,10.1,55,18.5c-10.5,10.4-25.6,18.8-44.7,25.3l-15.9,0.3 C633.9,562.3,622.2,541.8,639.5,518.2 M579.8,512.5c12,0.5,23.2,1.3,33.4,2.3c-6.1,17.8,0.6,35.2,16.1,53 c-17.9,4.2-38.5,7.1-61.7,8.6c5-15.8,2.2-32.5-16.7-49.1l-3.7,3.6c10,12.1,4.3,28.6-8.5,46.6c-3,0-6,0.1-9.2,0.1 c-9.9,0-26.8-0.8-46.5-3.2c13.5-13.2,23.9-23.4,25.1-24.6c12.5-12.3,15.9-25.5,13.4-38.3c3.1,0,5.8,0.1,8,0.1 c15.4,0,29.5,0.2,42.7,0.7c1.4,1.7,3,3.4,4.7,5.1l3.7-3.6C580.2,513.3,580.1,512.9,579.8,512.5 M449.5,506.1 c19.4,2.6,37.6,4,52.4,4.7c-2.5,7.9-7.9,17.1-18.2,27.2l-32.2,31.5c-16.9-3.2-34.4-7.5-50.6-13.4l24-23.5 C433.3,524,442,515.1,449.5,506.1 M704.8,578.7l29-28.3c2.3,6,2.9,11.6,2.9,16.4c0,32.1-31.8,55.1-94.6,68.5 c-3,0.6-6.1,1.3-9.1,1.8c3.9-15.3,0.2-31.4-18-47.4l-3.7,3.6c11.7,13.1,5,31.1-7.3,48.3c-35.9,4.5-66.9,4.8-74.4,4.8 c-5.4,0-129.2-0.6-204.3-51.3l45.7-8.5v-37.3c50.4,28,131,34.3,158.6,34.3c41.5,0,76.3-3.6,104.5-10.5c2.3,2.4,4.6,4.7,7.2,7.1 C672.2,579,690.5,579.7,704.8,578.7 M560.4,688.6l-71.3,69.6l-54.8,2.1c0,0-14.6-25.7,13.9-53.6l56.6-55.3 c14.1,0.9,23.3,1,24.7,1c7.1,0,35.6-0.3,69.3-4.2C585.5,665,568.6,680.3,560.4,688.6 M307.9,196c0,0,10.6,33.9,13.2,46.4 c0,0,6.9,29.6,37.6,61.8c0,0,25.6,30.5,63,46c-16.7,3.3-33.4,7.8-48.3,13.6c-3.3-11.3-11-22.1-21.2-31.5l-2.9,2.9 c0,0,14.5,15.2,2.3,39c-16.4,9.6-28.7,21.8-33.2,37.6L259.7,469c-27,26.4-70.2,64.3-30,100.7l3.3-3.2 c-17.9-20.3,30.3-65.3,35.4-70.3c0,0,26.9-26.3,51.7-50.5c5.5,13,18.5,27.4,48.6,40.3c15.7,6.6,33.3,11.4,51,15 c-10.4,11.4-20.5,20.9-25.5,25.8l-18.4,18c-2.1-1.1-4.2-2.2-6.2-3.4l-4.6-2.8v16.8l-33.1,32.3l-21.6,4l5.6,4.1 c0.3,0.2,0.6,0.4,0.8,0.6l-45.3,2.5c0,0-8-22.8,17.9-48.2l-17.5-17.1c-27,27.8-22.7,61.4,6.6,82.8c43.1,0,46.8-2.9,46.8-2.9 c-1.5,1.4-2.6,5.4-6.2,30.3l14.3,13.9l9.5-45l0.4-0.4c14.5,7.5,30,13.5,45.6,18.5c-23.2,24.2-43.4,53.8-11.7,82.6l3.3-3.2 c-18-20.2,30.2-65.2,35.3-70.2c0,0,0.5-0.5,1.3-1.3c19.3,4.5,38,7.6,54.5,9.6L430,688.9c-32.9,32.1-19.4,60.3,13.9,89.2L472,777 c-2.2,0-11,8.6-17.5,15L419,826.8c-4.4,4.3-20.1,19.6-32.5,21.1l22.3,4.6c0,0-11,23.6-9.9,39.6c0,0,7.7-17.5,38.4-47.5l70.9-69.3 l82.6-80.7c15.2-14.8,32.7-32.3,40-51c4.2-0.8,8.4-1.5,12.5-2.4c65.9-14,99.4-39.1,99.4-74.4c0-6.1-0.8-13.3-4.2-21l49.6-48.5 c28.5-25.7,64.7-66.8,31.1-99.6l-3.7,3.6c14.6,22.1-32.2,66.4-53,86c-0.6,0.6-20.2,20.1-39.1,39c-7.7-6.7-18.3-13.4-33.1-19.8 c-9.4-3.9-19.4-7.2-29.8-10l64-61.3c29.6-28.9,67.6-61,31.1-99.6l-3.7,3.6c7,14.5,3.4,25.9-18.9,50.5 c-14.9-9.5-31.4-17.1-48.4-23.3l18-17.6l69.8-68.2c4-3.9,20.5-18.6,31.8-21.1l-21.9-4.3c0,0,10.6-23.2,9.9-39.6 c0,0-7.7,18.2-36.9,48.2l-70.9,69.3l-25.6,25c-19-5.3-38-9.1-55.2-11.7l15-14.7c27-26.4,70.2-64.3,30-100.7l-3.3,3.2 c17.9,20.3-30.3,65.3-35.4,70.3c0,0-18.4,17.9-38.7,37.8c-23.5-2.2-39.7-2.3-41.5-2.3c-1.4,0-3.5,0-6.2,0.1 c13.7-7.9,29-19,43-34.5c0,0,69.4-70-17.5-154.9l-63.2-6.8c-46.4-52.5,7.3-101.4,7.3-101.4c55.2-53.9,103,3.6,103.8,2.9l0.7,54.3 l18.3,17.8l0.7-60.7c-10.6-10.4-19.7-19.3-28.1-27.5C557.4-1,518.3-12.1,480.3,17.2c-79.3,76,15,145.3,15,145.3l60.3,3.9 c0,0,44.6,43.6,7.7,98.2c0,0-51.9,85.7-139.2,75.3c0,0-61.4-10.7-78.9-97.1c-4.7-27.5-9.5-46.4-9.5-46.4s-10.2-42.1-42.8-56.8 c0,0-24.5-11.8-52.3,1.1l1.5,6.4C241.8,147.1,288.9,126.7,307.9,196"/><path d="M26.2,370.2l62.1-1.4l84.4-82.5c0,0,27.8-25.7,32.9-45.7c0,0,17.9-36.8-27-77.1l-3.3,3.2c0,0,31.1,27.5,8.4,66 c0,0-4.4,10.7-41.7,47.1l-71.3,69.6l-51.9,2.9c0,0-8-22.9,17.5-47.8l-17.5-17.1C0.6,303-14,339.5,26.2,370.2"/><path d="M276.1,369.4L255.7,388l-78.6-28.9c73.1-69.3,70.2-73.5,70.2-73.5l63.9,12.5C324.4,328,276.1,369.4,276.1,369.4 M329.5,319.5c-9.5-31.4-37.6-38.2-37.6-38.2l-38-8.6c14.6-31.4-16.8-53.6-16.8-53.6l-3.3,3.2c13.2,12.9,1.8,36.1,1.8,36.1 c-8,15.7-42,48.9-42,48.9l-59.9,58.5c-28.5,28.6-51.5,60.3-18.3,92.8c25.9,25.3,56.6,31.8,84.8,4.3l-18.6-18.2 c-34.7,33.9-60.7,12.1-60.7,12.1c-18.3-30,36.2-78.2,36.2-78.2l12.1-11.8L274,405.9c8.4-4.6,29.6-25.3,29.6-25.3 C336.4,348.4,329.5,319.5,329.5,319.5"/></g><polygon points="120.8 591.1 139.1 609 192.5 596.1 174.2 578.3"/><polygon points="268.1 735 286.4 752.9 339.7 740 321.4 722.1"/><g><path d="M617.8,688.2l19.4,18.9c0,0,56.3-30.7,118.4,30c61.4,60,52.6,148.5,1.8,198.1C702.6,988.8,630.2,981,630.2,981l17.9,17.5 c76.7,12.1,134.1-51.8,134.1-51.8c47.5-51.4,56.3-138.5-22.3-215.3C681.7,655,617.8,688.2,617.8,688.2"/><path d="M748.6,870.3c-41.7-45.7-74.9-8.2-74.9-8.2l-99.8,97.5c-44.6,43.6-73.8,7.9-73.8,7.9c-31.8-31.1,2.2-64.3,10.6-72.5 l-17.9-17.5c-49.3,48.2,1.1,92.5,1.1,92.5c54.8,55,96.8,9.6,96.8,9.6l101.6-99.3c30-29.3,53-6.8,53-6.8L748.6,870.3z"/></g></g></g></svg>