<?xml version="1.0" encoding="UTF-8"?>
<!DOCTYPE svg PUBLIC "-//W3C//DTD SVG 1.1//EN" "http://www.w3.org/Graphics/SVG/1.1/DTD/svg11.dtd">
<!-- Creator: CorelDRAW -->
<svg xmlns="http://www.w3.org/2000/svg" xml:space="preserve" width="200mm" height="200mm" style="shape-rendering:geometricPrecision; text-rendering:geometricPrecision; image-rendering:optimizeQuality; fill-rule:evenodd; clip-rule:evenodd"
viewBox="0 0 200 200"
 xmlns:xlink="http://www.w3.org/1999/xlink">
 <defs>
  <style type="text/css">
   <![CDATA[
    .str0 {stroke:#1F1A17;stroke-width:0.0762}
    .fil0 {fill:#1F1A17}
   ]]>
  </style>
 </defs>
 <g id="Layer_x0020_1">
  <metadata id="CorelCorpID_0Corel-Layer"/>
  <path class="fil0 str0" d="M160.577 127.183c4.7086,2.4379 8.9163,5.5101 12.6231,9.2504 3.7403,3.7734 6.6456,7.9811 8.7159,12.6897 2.1038,4.6751 3.1392,9.551 3.1392,14.5601 0,5.944 -1.3694,11.5211 -4.1075,16.7306 -2.7385,5.2427 -6.8125,9.4504 -12.1892,12.6898 -5.3764,3.2394 -11.7215,4.8423 -19.0349,4.8423 -10.8864,0 -19.4355,-2.1709 -25.68,-6.5119 -6.2114,-4.3414 -13.1575,-10.9535 -20.805,-19.8032 -7.6806,-8.8827 -15.1608,-15.595 -22.4075,-20.1699 -7.2799,-4.5753 -17.1314,-6.846 -29.5876,-6.846 -12.289,0 -21.8064,3.039 -28.6189,9.1502 -6.8125,6.1112 -11.7214,12.0551 -14.7269,17.8657 -3.7403,-7.8474 -5.5768,-16.8974 -5.5768,-27.2163 0,-9.7178 2.0368,-17.7991 6.1443,-24.311 4.1075,-6.4788 9.1838,-11.1874 15.1612,-14.1258 6.011,-2.9389 11.7215,-4.4081 17.1314,-4.4081 6.846,0 12.289,1.6361 16.3965,4.9421 4.0744,3.3061 8.3823,8.9499 12.9907,17.0312 4.6084,8.0482 7.9145,13.6249 9.9848,16.6975 2.0372,3.1056 5.6103,6.278 10.7196,9.5505 -2.5712,-5.0092 -3.8405,-10.2187 -3.8405,-15.6286 0,-4.4747 0.9687,-9.1833 2.9389,-14.0588 1.9701,-4.8758 4.7086,-9.5844 8.2816,-14.0592 3.54,-4.5082 7.7812,-8.7159 12.6567,-12.6231 -3.8405,0 -7.2799,-0.7679 -10.3189,-2.3377 -3.039,-1.5694 -5.4099,-3.7068 -7.1466,-6.4117 -1.7362,-2.705 -2.5712,-5.7105 -2.5712,-8.9495 0,-5.8777 1.937,-10.4526 5.8442,-13.6584 3.9402,-3.2394 8.9163,-6.3782 14.9939,-9.3506 1.4692,-0.6678 3.1392,-1.8033 4.909,-3.4394 1.8033,-1.6364 3.4062,-3.9742 4.8088,-7.0463 1.4026,-3.0722 2.1039,-6.8125 2.1039,-11.187 0,-7.681 -3.2726,-13.3579 -9.7845,-17.0312 -6.5119,-3.6401 -14.1594,-5.4769 -22.8753,-5.4769 -8.1484,0 -15.5619,1.1691 -22.2072,3.5064 -6.6791,2.3713 -12.4227,5.6438 -17.3317,9.885 -4.8758,4.2408 -8.6157,9.0496 -11.1538,14.3929 -2.5381,5.3432 -3.807,10.8533 -3.807,16.5302 0,7.0464 1.4692,12.7899 4.4416,17.2315 2.972,4.4416 7.7808,6.6457 14.4264,6.6457 4.4412,0 8.482,-1.0019 12.1888,-2.9724 3.6733,-2.0037 6.6788,-4.7753 9.05,-8.2817 2.3374,-3.5399 3.8737,-7.5473 4.5749,-12.0555 -2.8717,2.3042 -6.0776,3.4397 -9.6842,3.4397 -4.8759,0 -8.716,-1.436 -11.5211,-4.3414 -2.8051,-2.9053 -4.2077,-6.1778 -4.2077,-9.8511 0,-3.7738 1.5028,-7.1465 4.5083,-10.152 3.0055,-3.0055 6.6121,-4.5082 10.8529,-4.5082 2.6718,0 5.2095,0.6346 7.681,1.9034 2.4375,1.2689 4.5082,3.3728 6.2113,6.3116 1.6696,2.9388 2.5377,6.6456 2.5377,11.0868 0,7.3804 -1.9366,14.5601 -5.8106,21.5729 -3.9071,6.9793 -8.8828,12.5896 -14.9939,16.7973 -6.0777,4.2077 -12.3561,6.3115 -18.801,6.3115 -9.0835,0 -15.9626,-2.9384 -20.6377,-8.8161 -4.7086,-5.9108 -7.0464,-13.3244 -7.0464,-22.2738 0,-7.5808 1.8368,-14.9273 5.5101,-22.0738 3.7068,-7.1131 8.7826,-13.4246 15.2279,-18.868 6.4452,-5.4766 14.0923,-9.818 22.8753,-13.057 8.8161,-3.2394 18.0996,-4.8423 27.884,-4.8423 13.692,0 24.7788,2.2376 33.2609,6.7123 8.4824,4.4747 14.4264,9.8515 17.8997,16.163 3.4393,6.3116 5.176,12.4227 5.176,18.3 0,4.0409 -0.9352,8.4489 -2.8387,13.2577 -1.9035,4.8088 -4.2408,9.2169 -7.0459,13.1907 4.4411,-1.9701 9.2499,-3.5399 14.3928,-4.7086 5.1429,-1.1687 9.9182,-1.7367 14.2927,-1.7367 4.1075,0 8.0147,0.6347 11.6883,1.9371 3.7068,1.3023 7.0128,3.2393 9.9513,5.8106 2.9388,2.6048 5.2095,5.6103 6.846,9.1167 1.6364,3.4729 2.4379,7.3469 2.4379,11.5877 0,3.9742 -0.8015,7.8143 -2.4379,11.4879 -1.6365,3.7068 -3.9072,6.9127 -6.846,9.6843 -2.9385,2.7716 -6.4117,5.0092 -10.3856,6.7123 2.8387,-3.0722 5.1761,-6.8125 6.9794,-11.2206 1.8033,-4.4415 2.7049,-8.4489 2.7049,-12.0219 0,-2.0372 -0.5009,-4.0409 -1.4692,-6.0777 -0.9683,-2.0037 -2.4711,-3.7068 -4.4747,-5.0762 -2.0372,-1.3691 -4.5753,-2.0368 -7.6475,-2.0368 -8.1148,0 -15.1943,4.6084 -21.2053,13.8584 -0.2339,0.4007 -1.8369,3.1727 -4.7757,8.3152 -2.9384,5.1429 -5.4765,8.6493 -7.6139,10.4861 -2.137,1.87 -5.0758,2.8052 -8.7826,2.8052 -2.9389,0 -5.744,-0.9687 -8.3819,-2.8387 -2.6383,-1.9035 -4.7086,-4.5082 -6.2784,-7.9145 -1.5694,-3.3727 -2.3374,-7.2132 -2.3374,-11.521 -5.8106,7.2467 -10.3188,13.7586 -13.5247,19.5692 -3.1727,5.8106 -4.7757,11.5542 -4.7757,17.2982 0,4.7421 1.1691,9.5841 3.5065,14.4599 2.3712,4.909 5.8776,8.9163 10.5192,12.0887 4.6755,3.1392 10.0183,4.7421 16.0964,4.7421 5.2095,0 10.419,-1.3359 15.6617,-3.9742 5.2095,-2.6379 9.5845,-6.7789 13.0909,-12.3892 3.5395,-5.6103 5.2762,-12.5896 5.2762,-20.9383zm-87.9609 13.2242c-5.9775,-6.9793 -11.4545,-12.1888 -16.4301,-15.6621 -4.9425,-3.4394 -9.9517,-5.176 -15.061,-5.176 -4.6751,0 -9.2169,1.2688 -13.6249,3.8069 -4.4081,2.5381 -8.0147,5.9444 -10.853,10.1185 -2.8386,4.2077 -4.6084,8.8162 -5.3432,13.7587 3.8736,-4.7086 8.6158,-8.4154 14.2927,-11.1539 5.6773,-2.7385 11.7214,-4.1075 18.2002,-4.1075 3.1723,0 5.8773,0.267 8.1148,0.835 2.2041,0.5676 5.4431,1.6696 9.7178,3.3727 4.2744,1.7031 7.9476,3.1057 10.9867,4.2077zm87.3933 -38.9713c0,-2.6714 0.9683,-4.9756 2.9384,-6.9126 1.937,-1.9702 4.2413,-2.9389 6.846,-2.9389 2.4711,0 4.7422,0.9352 6.7458,2.8387 2.0368,1.8699 3.0387,4.2077 3.0387,7.0128 0,2.5046 -0.9684,4.7753 -2.9054,6.7458 -1.9034,1.9701 -4.2077,2.972 -6.8791,2.972 -2.7385,0 -5.0758,-1.0354 -6.9462,-3.0722 -1.9034,-2.0372 -2.8382,-4.2747 -2.8382,-6.6456zm8.0146 44.3477c-0.9016,6.078 -3.3395,11.3542 -7.2802,15.8624 -3.9403,4.5083 -8.5822,7.881 -13.8584,10.1852 -5.2766,2.2711 -10.386,3.4062 -15.3616,3.4062 -5.2095,0 -9.1502,-0.267 -11.8216,-0.7679 3.7068,3.6401 8.1148,6.6121 13.2577,8.8497 5.1094,2.2371 10.1852,3.3727 15.1943,3.3727 4.4416,0 8.6493,-1.0685 12.5896,-3.1724 3.9407,-2.1374 7.1465,-5.0762 9.5845,-8.8161 2.4375,-3.7403 3.6732,-7.9815 3.6732,-12.6566 0,-6.4784 -2.0036,-11.8883 -5.9775,-16.2632zm-69.7275 28.6859c-9.6511,5.6103 -17.0982,9.7844 -22.3744,12.5229 -5.2431,2.7385 -10.3189,4.8088 -15.2614,6.2114 -4.909,1.4025 -10.352,2.1038 -16.2628,2.1038 -6.0781,0 -11.6548,-0.1337 -16.6975,-0.4007 -5.0423,-0.267 -8.5156,-0.5009 -10.419,-0.7679 7.447,-10.2523 15.1612,-18.1332 23.1758,-23.6433 8.0482,-5.5101 16.7973,-8.2821 26.3147,-8.2821 5.1093,0 10.5192,1.0019 16.2967,3.0055 5.7771,1.9706 10.853,5.0762 15.2279,9.2504zm51.9951 -162.898c4.909,1.87 9.0832,4.8088 12.556,8.7495 3.4398,3.9403 5.5772,8.4154 6.3451,13.4577 1.5694,-6.4784 4.7086,-11.6544 9.4508,-15.5616 4.7417,-3.9071 10.7196,-5.8777 17.9328,-5.8777 0,7.3134 -1.937,13.3579 -5.8106,18.1001 -3.8741,4.7753 -9.0836,7.9476 -15.5955,9.5841 3.2729,0.4673 6.4117,1.5362 9.4507,3.1723 3.0391,1.67 5.6438,3.874 7.881,6.579 2.204,2.7049 3.9407,5.7104 5.1764,9.0496 -6.6456,-4.2408 -13.3579,-6.3782 -20.0702,-6.3782 -3.7734,0 -8.0482,0.3672 -12.8234,1.1355 -4.7753,0.7344 -8.716,1.6361 -11.8552,2.6714 2.4379,-8.3818 3.6401,-16.6304 3.6401,-24.645 0,-7.0464 -2.1038,-13.7251 -6.278,-20.0367z"/>
 </g>
</svg>
