<?xml version="1.0" encoding="utf-8"?>
<!-- Generator: Adobe Illustrator 23.0.2, SVG Export Plug-In . SVG Version: 6.00 Build 0)  -->
<svg version="1.1" baseProfile="basic" id="Layer_1"
	 xmlns="http://www.w3.org/2000/svg" xmlns:xlink="http://www.w3.org/1999/xlink" x="0px" y="0px" viewBox="0 0 332 200"
	 xml:space="preserve">
<g>
	<path d="M9,108.9L-0.2,0h19.5L28,108.9H9z M38,200H16.9l-7.4-85.8H44L38,200z M30.3,108.9L37.5,0h16.3l7.1,108.9H30.3z M74,200
		H53.2l-6.1-85.8h34.2L74,200z M63.2,108.9L71.9,0h19.5l-9.5,108.9H63.2z"/>
	<path d="M98.5,17.9v-3.7L112.7,0h22.1l13.9,14.2v3.7H98.5z M98.5,176.8V23.2H118v153.7H98.5z M148.8,185.8L134.6,200h-21.8
		l-14.2-14.2v-3.7h50.3V185.8z M129.3,176.8V23.2h19.5v153.7H129.3z"/>
	<path d="M159.3,17.9V0h36.1l14.2,14.2v3.7H159.3z M209.6,90.8l-9.2,8.9l9.2,9.2V200h-19.5v-91.1h-11.3V200h-19.5V23.2h19.5v67.9
		h11.3V23.2h19.5V90.8z"/>
	<path d="M220.1,58.7V0h19.5v58.7H220.1z M220.1,136.1V63.9h41.6l-7.1,36.3l7.1,35.8H220.1z M239.6,200h-19.5v-58.7h19.5V200z
		 M243.8,58.7L255.1,0h19.2l-11.6,58.7H243.8z M274.3,200h-19.2l-11.3-58.7h18.9L274.3,200z"/>
	<path d="M281.9,17.9v-3.7L296.1,0H318l14.2,14.2v3.7H281.9z M312.7,176.8v-67.9h-16.6L281.9,95V23.2h19.5v67.9H318l14.2,13.7v72.1
		H312.7z M281.9,176.8v-28.7h19.5v28.7H281.9z M332.2,185.8L318,200h-21.8l-14.2-14.2v-3.7h50.3V185.8z M332.2,51.8h-19.5V23.2h19.5
		V51.8z"/>
</g>
<g>
</g>
<g>
</g>
<g>
</g>
<g>
</g>
<g>
</g>
<g>
</g>
<g>
</g>
<g>
</g>
<g>
</g>
<g>
</g>
<g>
</g>
<g>
</g>
<g>
</g>
<g>
</g>
<g>
</g>
</svg>
