<svg xmlns="http://www.w3.org/2000/svg" xmlns:xlink="http://www.w3.org/1999/xlink" id="Layer_1" x="0" y="0" version="1.1" viewBox="0 0 70.7 20.2" xml:space="preserve" style="enable-background:new 0 0 70.7 20.2"><style type="text/css">.st0{fill:#232324}.st1{fill:#ffdc57}</style><g><path d="M7.9,13c-0.2,0.6-0.4,1.1-0.7,1.5c-0.3,0.4-0.5,0.8-0.7,1.2c0,0.1-0.1,0.2-0.1,0.3c0,0.1-0.1,0.2-0.1,0.3h3.3 c-0.1,0.6-0.3,1.3-0.5,1.9C9,18.7,8.8,19.4,8.6,20c0,0.2-0.1,0.2-0.3,0.2H4c-0.9,0-1.6-0.2-2-0.6c-0.4-0.4-0.6-1.1-0.4-2.1l0-0.2 c0.1-0.5,0.3-0.9,0.5-1.3c0.2-0.4,0.5-0.9,0.8-1.3s0.4-0.8,0.5-1.3c0.1-0.3,0-0.6-0.1-0.8c-0.1-0.2-0.5-0.3-1-0.3H0.2 C0,12.3,0,12.2,0,12.1c0.2-0.7,0.3-1.4,0.5-2.1C0.7,9.3,0.9,8.6,1,7.9h2.3c0.5,0,0.9-0.1,1.2-0.2C4.8,7.5,5,7.2,5.1,6.8 C5.2,6.4,5.2,6,5.2,5.6c0-0.4-0.1-0.8-0.1-1.2c0-0.4,0-0.9,0.1-1.4l0.1-0.4c0.2-0.8,0.6-1.5,1.2-2C7.1,0.2,8,0,9.3,0h4.1 c0.2,0,0.2,0.1,0.2,0.2c-0.1,0.6-0.3,1.3-0.5,1.9C13,2.8,12.8,3.4,12.6,4H9.4c0,0.1,0,0.2,0,0.2c0,0.1,0,0.1,0,0.2 C9.3,5.1,9.2,5.7,9.2,6.4c0,0.6,0,1.3-0.2,1.8C8.9,8.8,8.6,9.3,8.2,9.6C7.7,9.9,7.1,10,6.3,10.1l-0.1,0.4c0.8,0.2,1.3,0.6,1.6,1 C8,11.9,8,12.4,7.9,13z" class="st0"/><path d="M17.3,16.7h-4.8c-0.2,0-0.2-0.1-0.2-0.2l1.3-5h4.8c0.2,0,0.2,0.1,0.2,0.2L17.3,16.7z" class="st1"/><path d="M21.9,4.6h5.6c0.2,0,0.2,0.1,0.2,0.2C27.3,5.9,27.1,7,26.8,8c-0.3,1.1-0.5,2.1-0.8,3.2 c-0.1,0.4-0.2,0.9-0.4,1.4c0.1,0,0.1,0,0.2,0c0.1,0,0.1,0,0.2,0c0.6,0,1.1-0.2,1.6-0.7c0.5-0.5,0.8-1.2,1-2.1l0.1-0.6 c0.2-0.7,0.3-1.3,0.4-1.8s0.1-0.9,0-1.3c0-0.4-0.1-0.7-0.3-1.1L29,4.6h3.8c0.1,0,0.2,0,0.3,0.1c0.2,0.2,0.3,0.5,0.4,1 c0.1,0.5,0.1,1,0,1.7c0,0.7-0.2,1.4-0.4,2.1L33,9.9c-0.5,2.3-1.5,4-2.8,5.2c-1.4,1.2-3.1,1.8-5.3,1.8c-1.1,0-2-0.1-2.8-0.3 c-0.8-0.2-1.3-0.5-1.5-0.7c-0.1-0.1-0.1-0.2,0-0.3c0.3-1.2,0.6-2.4,0.9-3.4c0.3-1.1,0.5-2.1,0.8-3.1H21c-0.2,0-0.2-0.1-0.2-0.2 c0.2-0.7,0.3-1.4,0.5-2.1C21.5,6,21.7,5.3,21.9,4.6z" class="st1"/><path d="M38.4,4.4c0.5,0,1,0.1,1.4,0.4c0.4,0.2,0.7,0.5,0.9,0.8c0.2,0.3,0.4,0.6,0.5,0.9h0.4c0.1-0.3,0.1-0.6,0.2-0.9 c0.1-0.3,0.2-0.6,0.2-0.9h4.7C47,4.6,47,4.7,47,4.9c-0.3,1.2-0.6,2.5-0.9,3.8c-0.3,1.3-0.6,2.5-0.9,3.8c0,0.2,0,0.3,0.2,0.3h0.6 c-0.2,0.6-0.3,1.3-0.5,2c-0.2,0.7-0.3,1.3-0.5,2c0,0.2-0.1,0.2-0.3,0.2h-1.9c-0.8,0-1.4-0.2-1.9-0.6c-0.5-0.4-0.8-0.9-0.9-1.6h-0.4 c-0.5,0.8-1.1,1.4-1.7,1.8c-0.6,0.3-1.3,0.5-2.1,0.5c-1.1,0-1.8-0.4-2.3-1.2s-0.5-1.8-0.2-3.1l1.1-4.3c0.3-1.2,0.8-2.1,1.4-2.9 C36.4,4.8,37.3,4.4,38.4,4.4z M38.4,12.5c0.1,0.1,0.3,0.2,0.7,0.2c0.4,0,0.7-0.1,1-0.4c0.1-0.6,0.3-1.2,0.5-1.8s0.3-1.3,0.5-1.9 c-0.1-0.1-0.3-0.2-0.4-0.2s-0.3-0.1-0.5-0.1c-0.6,0-0.9,0.3-1.1,1l-0.6,2.4C38.3,12.1,38.3,12.3,38.4,12.5z" class="st1"/><path d="M50.7,16.7H46c-0.2,0-0.2-0.1-0.2-0.2c0-0.2,0.1-0.5,0.3-1c0.1-0.5,0.3-1.1,0.5-1.8c0.2-0.7,0.4-1.5,0.6-2.3 c0.2-0.8,0.4-1.6,0.6-2.4c0.2-0.8,0.4-1.5,0.5-2.2c0.1-0.4,0.2-0.8,0.3-1.1c0.1-0.4,0.2-0.7,0.3-1h4.7c0.1,0,0.2,0.1,0.2,0.2 c-0.1,0.4-0.2,0.7-0.3,1c-0.1,0.3-0.2,0.7-0.3,1h0.5c0.5-0.9,1-1.6,1.5-2c0.5-0.4,1.1-0.6,1.8-0.6c0.3,0,0.5,0,0.6,0.1 c0,0.1,0,0.2,0,0.3c0,0-0.1,0.3-0.2,0.7c-0.1,0.4-0.2,0.9-0.4,1.4c-0.1,0.6-0.3,1.1-0.4,1.7c-0.1,0.6-0.3,1-0.3,1.4h-0.4 c-0.3-0.1-0.6-0.2-0.9-0.2c-0.3-0.1-0.7-0.1-1.1-0.1c-0.2,0-0.5,0-0.7,0c-0.2,0-0.5,0.1-0.7,0.1c-0.3,1.2-0.6,2.3-0.9,3.5 C51.2,14.4,50.9,15.5,50.7,16.7z" class="st1"/><path d="M62.9,7.2c0.2-0.6,0.4-1.1,0.7-1.5c0.3-0.4,0.5-0.8,0.7-1.2c0-0.1,0.1-0.2,0.1-0.3c0-0.1,0.1-0.2,0.1-0.3h-3.2 c0.1-0.6,0.3-1.3,0.5-1.9s0.3-1.3,0.5-1.9c0-0.2,0.1-0.2,0.3-0.2h4.4c0.9,0,1.6,0.2,2,0.6c0.4,0.4,0.6,1.1,0.4,2.1l0,0.2 c-0.1,0.5-0.3,0.9-0.5,1.3c-0.2,0.4-0.5,0.9-0.8,1.3c-0.3,0.4-0.4,0.8-0.5,1.3c-0.1,0.3,0,0.6,0.1,0.8c0.1,0.2,0.5,0.3,1,0.3h2.2 c0.2,0,0.2,0.1,0.2,0.2c-0.2,0.7-0.3,1.4-0.5,2.1c-0.2,0.7-0.3,1.4-0.5,2.1h-2.3c-0.5,0-0.9,0.1-1.2,0.2c-0.3,0.2-0.5,0.4-0.6,0.9 c-0.1,0.4-0.1,0.8-0.1,1.2c0,0.4,0.1,0.8,0.1,1.2c0,0.4,0,0.9-0.1,1.4l-0.1,0.4c-0.2,0.8-0.6,1.5-1.2,2c-0.6,0.5-1.5,0.7-2.8,0.7 h-4.1c-0.2,0-0.2-0.1-0.2-0.2c0.1-0.6,0.3-1.3,0.5-1.9s0.3-1.3,0.5-1.9h3.3c0-0.1,0-0.2,0-0.2c0-0.1,0-0.1,0-0.2 c0.1-0.6,0.1-1.3,0.1-1.9c0-0.6,0-1.3,0.2-1.8c0.1-0.6,0.4-1.1,0.9-1.4c0.5-0.3,1.1-0.4,1.9-0.5l0.1-0.4c-0.8-0.2-1.3-0.6-1.6-1 C62.7,8.3,62.7,7.8,62.9,7.2z" class="st0"/></g></svg>